<?xml version="1.0" encoding="UTF-8"?>
<svg id="a" data-name="Layer 1" xmlns="http://www.w3.org/2000/svg" width="2788.303" height="3084.052" viewBox="0 0 2788.303 3084.052">
  <path d="M1340.004,2998.089c-2.983-4.271-49.288-68.988-155.078-132.833-64.129-38.701-137.323-69.569-217.549-91.747-101.107-27.951-213.784-42.123-334.903-42.123h-256.082v-64.892c0-73.128-59.494-132.621-132.621-132.621h-64.892v-524.677C130.543,1950.29,0,1770.078,0,1542.026s130.543-408.265,178.879-467.171v-524.677h64.892c73.127,0,132.621-59.494,132.621-132.621v-64.892h256.082c121.119,0,233.796-14.172,334.903-42.123,80.226-22.178,153.42-53.046,217.549-91.747,106.056-64.003,152.328-128.886,155.099-132.862L1394.661,0l53.652,85.964c2.983,4.27,49.288,68.988,155.076,132.831,64.128,38.701,137.319,69.569,217.543,91.747,101.105,27.951,213.781,42.123,334.897,42.123h256.082v64.892c0,73.127,59.493,132.621,132.621,132.621h64.892v524.677c48.335,58.906,178.878,239.118,178.878,467.171s-130.543,408.264-178.878,467.169v524.677h-64.892c-73.128,0-132.621,59.493-132.621,132.621v64.892h-256.082c-121.115,0-233.792,14.172-334.897,42.123-80.224,22.178-153.416,53.046-217.543,91.747-106.115,64.041-152.379,128.961-155.101,132.869l-54.632,85.927-53.651-85.963Z"/>
  <g>
    <path d="M1816.163,1072.121c-19.637-1.488-36.653,12.106-50.819,23.956-120.839,101.083-173.8,405.13-194.405,560.004-5.752,43.233-12.603,123.981-1.946,164.742,11.052,42.274,45.783,15.889,65.058-5.73,68.846-77.218,35.729-206.784,124.191-282.041,87.388-74.343,180.383,4.983,122.092,105.144-19.131,32.873-47.203,52.863-81.316,68.207-17.07,7.678-35.591,5.194-42.923,27.608-15.6,47.69,18.048,71.268,61.827,50.531,83.598-39.599,124.214-185.049,161.228-261.936,9.487-19.707,13.503-30.175,35.917-37.433,34.598-11.202,78.63-16.339,115.298-25.768,24.154-6.211,70.709-25.795,91.314-27.412,26.783-2.102,37.444,25.113,22.618,45.412-43.162,73.509-118.885,142.297-161.428,213.781-6.048,10.162-13.41,22.05-9.582,34.47,4.001,12.98,70.402,31.786,84.82,29.516,55.016-8.661,95.876-127.208,114.254-173.544,15.326-38.643,27.331-84.444,45.369-121.072,7.414-15.054,18.116-33.002,35.003-38.579,18.439-6.089,54.184-7.327,75.578-11.651,38.105-7.701,66.572-15.521,100.639-34.782,15.823-8.947,25.397-27.456,46.764-16.799,11.272,5.622,16.318,20.575,10.667,31.886-42.337,65.836-92.305,128.091-131.096,196.172-7.027,12.333-17.436,25.532-16.026,40.689,1.311,14.097,34.106,2.107,43.903,1.284,158.85-13.342,141.972,171.925,37.958,238.238-121.806,77.656-317.375,110.69-459.137,136.156-309.491,55.595-622.182,89.804-932.527,139.582-108.801,17.451-239.381,15.661-322.191,86.614-20.12,17.239-39.006,51.921-55.144,63.343-40.193,28.447-63.149-20.071-42.206-59.124,55.705-103.876,173.726-105.194,278.889-124.266,397.365-72.067,802.147-105.682,1197.339-190.759,73.499-15.823,153.378-33.881,223.058-61.893,49.441-19.876,145.396-65.496,137.29-130.217-9.306-74.3-125.142-23.056-164.401-4.083-9.622,4.65-37.861,23.951-42.873,24.867-40.362,7.372-10.547-58.27-1.74-75.114,32.8-62.734,81.529-122.967,117.557-184.326,6.078-14.779,4.897-26.471-13.994-25.39-51.194,2.93-79.717,18.701-101.577,65.015-38.023,80.556-80.085,271.769-189.161,279.118-46.926,3.161-77.875-28.763-129.021-21.779-15.327,2.093-39.088,19.758-50.055,9.082-14.679-14.29,5.31-47.923,14.537-61.518,44.826-66.052,110.441-127.177,154.828-194.97,6.948-11.151,5.372-25.967-9.627-26.866-49.86,15.796-78.573-.036-107.642,50.643-36.524,63.677-54.162,127.321-101.761,188.81-49.77,64.292-146.554,142.946-214.185,53.893-19.991,32.462-38.709,65.335-72.178,85.751-62.523,38.141-116.159,10.627-133.811-57.572-5.065-19.569-2.189-48.492-22.053-58.865-10.237.964-44.482,54.286-55.436,65.967-27.557,29.388-69.775,60.908-112.085,44.213-9.777-3.858-25.602-18.447-35.439-17.013-18.778,2.737-38.612,37.165-54.365,50.217-38.526,31.921-88.233,35.688-111.9-14.893-7.517-16.065-7.656-31.353-12.175-47.066-2.856-9.931-7.55-23.548-19.931-14.303-7.668,5.726-27.13,37.698-36.44,48.177-26.617,29.96-78.127,79.763-115.805,36.719-41.921-47.891.111-172.993,29.228-222.012,30.097-50.667,91.217-107.331,155.034-86.337,6.304,2.074,21.795,11.643,24.103,11.527,13.762-.693,19.421-21.767,28.611-30.599,20.07-19.288,49.157-13.193,46.058,17.63-2.796,27.815-24.712,79.925-31.873,112.21-9.035,40.735-21.856,103.5-14.217,144.041,5.945,31.553,33.341,2.218,45.317-11.394,48.22-54.805,56.334-149.614,88.308-216.365,30.677-64.043,93.4-129.342,170.988-119.117,19.461,2.565,38.568,24.428,53.727,5.285,53.115-251.819,76.863-346.828,168.084-450.919,34.497-39.365,128.318-107.677,171.702-44.582,44.175,64.245-35.638,173.201-94.493,200.759-40.224,18.834-64.62-20.931-26.106-51.486,20.845-16.537,33.327-16.971,51.724-41.375,15.46-20.509,27.147-43.897,24.21-70.305ZM1826.576,1564.545c-17.234,3.37-39.065,30.86-47.732,45.521-6.976,11.801-26.383,45.6-8.064,54.234,30.452-10.127,69.056-43.351,73.193-76.569,1.816-14.582.142-26.616-17.396-23.186ZM1457.129,1584.379c-81.969,4.545-137.966,156.31-128.509,225.721,3.381,24.817,8.305,30.592,31.786,19.13,50.27-24.538,124.768-167.125,122.821-221.591-.677-18.945-6.318-24.356-26.098-23.259ZM969.591,1885.567c5.727,6.552,42.632-38.004,46.247-42.591,22.202-28.171,44.123-64.974,61.437-96.544,7.687-14.016,32.682-52.788,26.301-66.701-6.305-13.748-15.772-10.932-26.725-7.039-66.596,23.672-108.702,147.486-107.26,212.875Z" fill="#fff"/>
    <path d="M1863.444,442.285c17.4,17.777,5.24,45.889-7.548,62.422-35.435,45.812-68.131,57.647-122.776,71.18-41.761,10.342-95.978,4.677-110.214,53.418-30.156,137.904-79.1,273.287-103.909,412.334-5.432,30.442-15.97,97.442-5.152,124.666,14.853,37.376,55.282,33.165,38.436,66.856-14.108,28.216-74.963,5.896-94.986-32.883-33.367-64.622,9.283-221.404,27.174-291.891,20.804-81.965,54.566-169.157,72.298-249.3,3.823-17.278,8.346-45.373-13.463-52.753-8.958-3.031-70.728,8.017-84.967,10.761-31.464,6.064-78.616,16.176-105.821,32.423-24.769,14.791-37.93,45.531-72.839,48.525-19.127,1.64-41.05-6.248-39.326-28.67,2.388-31.053,52.914-24.656,59.854-58.046,8.081-38.88-43.297-27.673-65.304-17.343-49.837,23.392-134.406,138.527-102.904,192.459,10.473,17.929,26.38,12.42,44.875,9.046,19.011-3.468,57.613-21.708,71.568-21.105,15.926.688,24.089,13.976,20.83,28.776-3.082,14-37.551,31.162-49.927,40.434-61.73,46.249-113.806,96.114-151.314,164.654-26.94,49.227-72.943,177.553,4.294,201.752,82.709,25.913,172.691-79.98,209.266-143.38,11.485-19.909,34.382-84.887,52.963-90.895,17.868-5.777,25.347,6.191,25.822,22.696,1.999,69.481-21.41,174.26-56.214,234.631-91.904,159.415-247.417,203.485-455.402,229.555-46.652,5.848-46.541,12.71-61.076,54.592-10.897,31.399-19.388,66.687-27.937,99.008-12.951,48.962-40.153,137.76-44.211,184.525-.518,5.974-.378,18.2,5.08,20.676,18.273,8.289,66.175-.183,86.191-5.821,17.249-4.858,83.912-39.125,81.664,3.07-2.192,41.132-88.381,52.1-119.101,55.411-18.561,2-55.429-4.053-67.496,11.502-18.125,23.365-44.857,161.376-56.007,200.705-27.196,95.924-76.838,288.809-198.148,298.355-153.953,12.115-161.709-224.83-67.614-301.725,17.952-14.671,52.266-29.47,72.649-11.473,26.273,23.198-23.239,49.123-35.828,62.391-34.277,36.124-46.899,123.314-19.237,165.515,20.4,31.122,55.97,29.899,83.922,9.173,68.071-50.475,126.297-281.479,141.103-366.684,2.081-11.973,10.042-46.202-.233-53.418-18.999-13.341-75.804,15.453-93.545,27.358-7.645,5.13-34.285,30.676-36.622,31.257-21.676,5.389-13.125-30.501-7.868-41.886,13.74-29.751,48.045-52.005,78.227-62.834,21.307-7.645,53.15-8.309,69.132-15.507,8.511-3.833,14.926-14.819,19.998-22.319,18.98-64.928,34.475-130.843,52.094-196.154,8.982-33.295,23.34-65.304,25.035-99.771.713-14.493-10.93-26.609-25.435-26.229-69.684,1.823-263.39,33.387-276.374,37.273-49.271,14.748-107.672,43.012-131.317,91.558-12.555,25.778-18.212,68.415,12.648,83.467,14.742,7.191,16.478,1.53,29.734,1.087,44.566-1.486,37.068,48.862,1.451,60.827-53.336,17.917-110.681-33.022-117.757-85.35-16.4-121.291,104.887-186.209,205.206-208.043,213.797-46.531,667.334-24.848,809.98-223.83,5.493-7.662,35.978-52.833,29.917-58.918-2.191-.06-4.46-.315-6.609.412-4.114,1.392-36.832,35.13-45.627,41.832-138.942,105.879-280.802,24.601-233.45-151.601,14.729-54.807,48-109.597,83.929-153.041,10.318-12.476,64.525-64.857,65.854-72.518,2.493-14.367-22.545-18.191-33.211-27.739-60.197-53.887-5.048-166.519,37.893-215.683,47.159-53.993,150.035-111.355,207.399-40.857,4.268,5.245,6.495,15.034,9.176,17.623,14.323,13.838,51.102-5.369,69.23-9.774,108.326-26.32,313.472-10.725,382.265-96.648,8.242-10.294,13.871-29.059,27.453-34.603,10.28-4.196,24.194-3.648,32.157,4.487Z" fill="#fff"/>
    <path d="M2356.062,1287.575c-59.683,28.209-112.586,65.199-174.231,89.554-48.222,19.052-107.229,38.492-158.118,47.836-20.623,3.787-56.53,16.884-59.879-11.808-7.568-64.83,1.625-155.991,2.99-222.787,1.138-55.672-1.873-114.108,2.749-169.326,4.186-50.018,42.748-54.296,84.531-62.171,79.284-14.942,172.311-17.903,252.181-6.583,17.701,2.509,66.52,9.701,77.124,22.976,12.137,15.193,11.132,101.928,12.036,124.836,2.677,67.829,9.245,156.096,3.047,222.844-3.671,39.539-42.43,28.505-42.43,19.637v-55.008ZM2014.672,1104.217v78.985l307.533-174.868c-36.711-3.824-73.851-9.183-110.808-7.856l-196.725,103.739ZM2017.493,1291.806v69.112c5.131.453,8.948-3.016,13.14-5.2,77.194-40.221,152.532-92.093,230.427-133.51,31.154-16.564,63.432-31.305,95.237-46.478-6.489-19.895-.416-41.719-3.051-61.693-.514-3.9,1.548-4.91-4.153-4.115l-331.6,181.883Z" fill="#fff"/>
    <path d="M2389.136,2192.298c-7.427,7.288-59.231,19.054-72.543,21.972-90.924,19.931-199.45,26.255-290.663,5.638-26.797-6.057-59.072-12.782-62.186-45.019-1.569-16.246-1.953-60.413.81-75.638,2.694-14.844,21.031-31.628,36.672-29.768,23.581,2.805,14.205,21.944,16.261,37.614.432,3.294-1.167,5.632,4.138,4.101,14.532-4.194,46.977-29.408,63.521-38.064,53.579-28.034,104.71-32.303,162.07-46.705,27.285-6.851,114.796-37.621,135.59-33.563,7.95,1.552,14.714,10.486,15.726,18.12,3.544,26.723,2.769,144.894-3.745,168.648-.898,3.275-3.506,10.559-5.652,12.665ZM2356.062,2114.098v-76.164l-251.105,138.197c26.436,2.825,53.814,4.463,80.527,2.965,61.64-3.457,93.706-30.932,146.996-56.136,7.444-3.521,15.681-6.541,23.582-8.862Z" fill="#fff"/>
    <path d="M2367.979,869.449c16.158,3.487,63.651,22.622,66.643,39.397,1.885,10.565-7.149,22.473-18.04,23.188-11.094.728-52.717-15.268-68.451-18.762-97.355-21.617-208.302-14.61-305.277,6.145-20.641,4.418-96.193,29.216-110.02,22.592-3.798-1.819-8.143-10.042-8.422-14.302-1.523-23.26,46.98-35.948,63.584-43.391,8.823-67.461,36.948-117.951,102.153-143.284,83.791-32.553,185.13-31.504,246.228,42.947,21.457,26.146,27.488,52.459,31.601,85.47ZM2321.948,864.227c9.674-38.113-29.141-74.242-59.878-90.58-37.478-19.921-85.195-23.446-126.08-13.552-1.05,6.203.52,5.625,5.519,7.022,13.371,3.737,34.591,2.134,51.012,5.544,27.774,5.768,72.974,28.209,88.64,52.421,7.125,11.012,6.232,24.243,12.729,35.229l28.058,3.916Z" fill="#fff"/>
    <path d="M1991.469,2306.552c-16.158-3.487-63.651-22.622-66.643-39.397-1.885-10.565,7.149-22.473,18.04-23.188,11.094-.728,52.717,15.268,68.451,18.762,97.123,21.566,208.528,14.689,305.277-6.145,20.856-4.491,95.807-29.4,110.02-22.592,3.798,1.819,8.143,10.042,8.422,14.302,1.523,23.26-46.98,35.948-63.584,43.391-8.617,67.123-37.368,118.114-102.153,143.284-83.791,32.553-185.13,31.504-246.228-42.947-21.457-26.146-27.488-52.459-31.601-85.47ZM2223.445,2410.334c-2.028-2.161-48.499-5.269-58.793-7.539-27.011-5.957-71.105-28.291-86.365-51.875-7.125-11.012-6.232-24.243-12.729-35.229l-28.058-3.916c-9.57,39.108,29.972,75.332,61.694,91.586,33.294,17.059,76.988,21.82,113.598,14.533,2.629-.523,15.854-2.016,10.652-7.559Z" fill="#fff"/>
    <path d="M782.965,755.167c5.466-1.779,9.058,2.645,10.874,7.216,6.17,15.536,7.171,43.621,13.286,62.313,8.657,26.459,23.161,48.934,47.243,63.394,5.919,3.554,20.986,6.726,21.61,13.616.884,9.759-18.418,13.278-25.33,17.085-34.482,18.993-42.519,61.004-46.458,97.367-1.977,18.251.338,48.285-4.309,63.912-1.542,5.185-7.815,6.62-11.779,3.335-3.998-3.313-6.935-45.162-8.42-54.264-5.804-35.561-12.021-94.567-51.737-106.841-9.336-2.885-31.772-1.382-24.506-16.088,1.411-2.855,26.521-13.18,33.167-18.472,21.614-17.212,33.94-64.918,39.148-91.77,2.328-12.005,2.242-25.044,4.235-36.329.363-2.055.731-3.744,2.977-4.475Z" fill="#fff"/>
    <path d="M475.873,1114.189c-2.93-2.875-9.198-6.808-13.123-8.251-9.726-3.577-24.809,2.744-22.21-11.965.845-4.781,15.996-16.903,20.245-22.612,13.809-18.553,20.014-43.384,25.13-65.566,1.758-7.624,8.345-49.1,10.242-51.352,11.495-13.642,13.946,30.665,15.096,36.247,7.073,34.317,17.143,67.557,48.532,86.659,5.562,3.385,14.017,2.073,12.592,11.339-.939,6.104-11.762,9.195-16.31,12.914-28.482,23.298-33.488,67.053-36.781,101.83-.911,9.624,3.608,39.551-13.365,23.597-4.014-30.616-7.175-90.393-30.049-112.84Z" fill="#fff"/>
    <path d="M1818.232,799.901c-.53.912-14.416,8.77-17.456,11.84-5.487,5.542-11.218,15.875-14.193,23.126-3.5,8.532-6.905,30.14-10.502,35.239-2.265,3.212-6.638,3.101-9.665,1.073-12.039-8.065-4.419-48.379-33.628-60.641-5.86-2.46-15.687-.381-15.663-9.39.02-7.612,11.333-10.503,17.021-15.155,9.231-7.55,14.537-18.22,18.747-29.235,3.416-8.936,5.919-27.859,8.827-33.371,2.871-5.442,9.239-1.822,11.44,2.374,7.948,15.146,4.937,31.686,20.502,47.017,6.875,6.772,31.091,15.913,24.571,27.123Z" fill="#fff"/>
  </g>
  <g>
    <path d="M1123.974,2407.071v-112.869l68.071-12.488v19.094l-49.603,9.1v25.021l46.096-8.458v19.016l-46.096,8.458v30.642l51.282-9.409v19.094l-69.751,12.799Z" fill="#fff"/>
    <path d="M1204.716,2355.455l18.086-5.475c2.034,14.052,8.699,20.04,19.994,17.968,5.596-1.027,9.998-3.312,13.202-6.848,3.204-3.538,4.808-7.488,4.808-11.85,0-2.564-.562-4.641-1.679-6.232-1.12-1.591-2.824-2.752-5.114-3.488-2.29-.733-7.835-1.65-16.635-2.752-7.888-.961-13.661-2.514-17.324-4.662-3.663-2.148-6.576-5.319-8.737-9.512-2.163-4.195-3.245-8.931-3.245-14.214,0-6.153,1.386-11.948,4.157-17.381,2.774-5.429,6.603-9.852,11.487-13.259,4.884-3.409,10.913-5.773,18.086-7.089,10.784-1.979,19.206-.57,25.26,4.218,6.054,4.793,9.259,12.649,9.616,23.566l-18.542,4.402c-.815-5.906-2.571-9.818-5.268-11.734-2.695-1.918-6.536-2.419-11.523-1.504-4.985.915-8.828,2.668-11.523,5.258-2.695,2.594-4.045,5.452-4.045,8.572,0,3.071,1.225,5.431,3.671,7.079,2.448,1.648,8.074,2.926,16.872,3.826,9.307,1.014,16.035,2.643,20.18,4.884,4.142,2.243,7.309,5.534,9.493,9.882,2.188,4.345,3.283,9.903,3.283,16.677,0,9.801-2.991,18.587-8.969,26.354-5.976,7.769-15.325,12.818-28.044,15.152-22.488,4.128-35.002-6.485-37.545-31.836Z" fill="#fff"/>
    <path d="M1315.523,2371.925v-93.773l-27.245,4.998v-19.094l72.881-13.373v19.096l-27.167,4.983v93.773l-18.469,3.39Z" fill="#fff"/>
    <path d="M1358.869,2363.97v-21.631l17.552-3.221v21.633l-17.552,3.219Z" fill="#fff"/>
    <path d="M1485.778,2320.59v20.095l-61.66,11.314c.659-7.712,2.681-15.3,6.067-22.767,3.382-7.469,9.958-17.662,19.725-30.581,7.733-10.292,12.49-17.165,14.271-20.621,2.645-5.051,3.969-9.884,3.969-14.499,0-4.922-1.096-8.441-3.281-10.551-2.191-2.112-5.063-2.841-8.625-2.188-7.784,1.428-11.984,8.078-12.592,19.941l-17.478,1.052c1.071-11.694,4.237-20.718,9.501-27.072,5.268-6.356,12.275-10.336,21.025-11.941,9.616-1.766,16.867.059,21.751,5.471,4.884,5.412,7.326,12.195,7.326,20.349,0,4.616-.625,9.206-1.869,13.766-1.248,4.563-3.169,9.273-5.76,14.136-2.596,4.858-6.922,11.255-12.976,19.187-5.646,7.446-9.221,12.334-10.72,14.66-1.502,2.326-2.71,4.548-3.625,6.665l34.951-6.413Z" fill="#fff"/>
    <path d="M1527.371,2219.802c8.899-1.633,16.101,1.318,21.595,8.847,5.494,7.535,8.243,21.967,8.243,43.306s-2.748,36.703-8.243,46.251c-5.494,9.55-12.668,15.135-21.521,16.76-8.904,1.633-16.103-1.278-21.595-8.735-5.496-7.452-8.243-21.977-8.243-43.57,0-21.183,2.746-36.548,8.243-46.101,5.492-9.546,12.668-15.133,21.521-16.758ZM1527.407,2237.734c-3.471.638-6.24,3.454-8.308,8.447-2.068,4.994-3.101,16.105-3.101,33.333s1.033,27.949,3.101,32.161c2.068,4.208,4.837,5.995,8.308,5.357,3.521-.646,6.303-3.464,8.346-8.454,2.041-4.987,3.063-16.073,3.063-33.251s-1.022-27.962-3.063-32.203c-2.043-4.24-4.825-6.037-8.346-5.391Z" fill="#fff"/>
    <path d="M1628.334,2294.434v20.093l-61.662,11.314c.661-7.71,2.683-15.298,6.067-22.767,3.382-7.467,9.958-17.659,19.725-30.581,7.733-10.292,12.49-17.165,14.271-20.619,2.645-5.051,3.969-9.884,3.969-14.499,0-4.922-1.094-8.441-3.281-10.551-2.191-2.112-5.063-2.841-8.625-2.188-7.782,1.428-11.981,8.078-12.59,19.939l-17.478,1.054c1.069-11.694,4.235-20.718,9.501-27.074,5.266-6.354,12.275-10.336,21.022-11.941,9.616-1.764,16.867.059,21.753,5.473,4.882,5.412,7.326,12.193,7.326,20.346,0,4.618-.625,9.208-1.872,13.768-1.248,4.561-3.169,9.273-5.76,14.134-2.596,4.861-6.92,11.257-12.974,19.187-5.649,7.448-9.223,12.334-10.722,14.662-1.502,2.326-2.708,4.548-3.625,6.665l34.954-6.413Z" fill="#fff"/>
    <path d="M1639.551,2282.599l17.019-5.663c.458,5.228,1.912,9.024,4.362,11.384,2.45,2.362,5.332,3.236,8.648,2.628,3.623-.665,6.684-2.894,9.185-6.69,2.499-3.794,3.749-8.644,3.749-14.546,0-5.492-1.2-9.582-3.599-12.273-2.4-2.691-5.311-3.724-8.733-3.097-2.245.414-4.928,1.445-8.042,3.095l1.905-17.981c4.552-.733,8.158-2.621,10.817-5.67,2.607-3.038,3.912-6.886,3.912-11.544,0-3.889-.944-6.76-2.835-8.614-1.888-1.855-4.311-2.51-7.273-1.967-2.964.543-5.526,2.286-7.698,5.224-2.169,2.938-3.46,6.935-3.868,11.99l-16.255-.406c1.681-10.627,4.968-18.722,9.858-24.29,4.89-5.568,11.054-9.035,18.494-10.399,8.354-1.534,14.989.249,19.905,5.342,4.918,5.095,7.376,11.28,7.376,18.557,0,4.92-1.107,9.556-3.321,13.908-2.212,4.354-5.532,8.422-9.958,12.205,5.137.444,9.32,2.731,12.554,6.859,3.228,4.132,4.846,9.736,4.846,16.819,0,10.317-3.044,19.411-9.132,27.273-6.088,7.869-13.333,12.571-21.738,14.113-8.048,1.479-14.861-.114-20.439-4.774-5.579-4.658-8.826-11.823-9.742-21.483Z" fill="#fff"/>
  </g>
  <path d="M1394.143,2981.997l-9.028-13.737c-.473-.718-49.288-73.538-165.86-145.406-68.49-42.224-146.631-75.875-232.258-100.013-107.176-30.213-226.453-45.532-354.523-45.532h-202.005v-10.815c0-102.947-83.752-186.698-186.698-186.698h-10.815v-490.488c-10.771-12.1-49.189-57.174-88.046-126.111-41.436-73.519-90.832-188.918-90.832-321.17s49.396-247.651,90.832-321.17c38.857-68.94,77.275-114.012,88.046-126.111v-490.489h10.815c102.947,0,186.698-83.753,186.698-186.698v-10.815h202.005c128.069,0,247.347-15.319,354.523-45.532,85.627-24.138,163.769-57.787,232.258-100.012,116.572-71.868,165.387-144.688,165.866-145.415l9.052-13.727,9.028,13.738c.473.716,49.288,73.536,165.86,145.405,68.485,42.224,146.629,75.873,232.254,100.012,107.172,30.213,226.447,45.532,354.514,45.532h202.005v10.815c0,102.946,83.752,186.698,186.698,186.698h10.815v490.489c10.771,12.098,49.191,57.172,88.046,126.111,41.439,73.519,90.834,188.918,90.834,321.17s-49.396,247.651-90.834,321.17c-38.855,68.937-77.275,114.011-88.046,126.111v490.488h-10.815c-102.947,0-186.698,83.752-186.698,186.698v10.815h-202.005c-128.067,0-247.343,15.319-354.514,45.532-85.625,24.138-163.769,57.788-232.254,100.013-116.572,71.867-165.387,144.687-165.866,145.416l-9.052,13.726ZM451.824,2655.679h180.651c130.463,0,252.06,15.689,361.413,46.633,87.683,24.81,167.748,59.432,237.97,102.902,92.712,57.393,143.164,114.398,162.3,138.855,19.136-24.457,69.588-81.462,162.298-138.855,70.222-43.471,150.285-78.093,237.968-102.902,109.352-30.944,230.946-46.633,361.405-46.633h180.651c5.458-106.291,90.946-191.779,197.237-197.237v-477.565l2.907-3.118c.441-.473,44.645-48.253,88.226-125.716,40.032-71.149,87.748-182.689,87.748-310.017s-47.717-238.869-87.748-310.018c-43.58-77.462-87.784-125.242-88.226-125.715l-2.905-3.116-.002-4.262v-473.307c-106.291-5.458-191.779-90.946-197.237-197.236h-180.651c-130.458,0-252.053-15.69-361.405-46.632-87.683-24.812-167.746-59.434-237.968-102.903-92.71-57.393-143.162-114.398-162.298-138.853-19.136,24.455-69.588,81.46-162.3,138.853-70.222,43.471-150.287,78.091-237.97,102.903-109.354,30.942-230.951,46.632-361.413,46.632h-180.651c-5.458,106.29-90.946,191.778-197.237,197.236v477.566l-2.907,3.119c-.441.473-44.645,48.253-88.226,125.715-40.03,71.148-87.746,182.689-87.746,310.018s47.717,238.868,87.746,310.017c43.58,77.463,87.784,125.243,88.226,125.716l2.905,3.114.002,4.263v473.306c106.291,5.458,191.779,90.946,197.237,197.237Z" fill="#fff"/>
  <path d="M2259.477,621.86c-1.06-3.779-2.972-7.06-5.737-9.843-18.507-23.632-50.963-31.016-79.479-32.289-26.453-1.182-53.277,2.048-78.987,8.22-35.904,8.619-69.917,24.487-99.843,46.046.081-.098.166-.193.247-.291,2.224-2.715,4.373-5.498,6.445-8.331.529-.723,1.077-1.443,1.57-2.19.194-.294.326-.497.412-.636,1.397-1.833,2.837-3.633,4.205-5.488,8.114-11.008,13.977-23.99,17.027-37.332,1.804-7.896,2.587-15.939,2.735-24.018.062-3.394.012-6.799.166-10.186.147-3.245.185-6.385-.841-9.564-1.067-3.305-2.586-6.53-3.951-9.698-1.773-4.116-7.776-8.264-11.998-9.226-4.489-1.022-8.809-.787-13.072,1.012-8.635,3.644-14.968,14.203-11.624,23.684.974,2.761,1.696,5.559,2.835,8.258.838,1.985,1.991,3.748,3.045,5.597.594,1.844,1.092,3.7,1.472,5.599.634,6.361.542,12.736-.169,19.087-1.373,8.739-3.553,17.291-6.164,25.749-.645,2.092-1.498,4.139-2.1,6.239-.007.025-.006.027-.012.05-.178.352-.342.713-.516,1.067-.655,1.339-1.332,2.668-2.028,3.986-2.185,4.135-4.583,8.151-7.122,12.079-7.543,11.67-16.333,22.376-25.347,32.906.731-3.497,1.368-7.02,1.818-10.588,2.145-17.01-.518-34.143-7.81-49.647-7.055-15-19.499-26.328-33.525-34.705-1.549-.925-3.141-1.751-4.784-2.496-3.179-1.44-6.697-3.347-10.182-4.058-5.263-1.075-11.037-1.74-16.461-1.538-5.53.206-11.409,1.02-16.735,2.706-3.599,1.14-7.125,2.706-10.541,4.271-3.552,1.628-6.56,4.179-9.525,6.702-4.514,3.841-7.685,12.109-7.424,17.924.256,5.723,1.923,10.803,5.443,15.359,3.236,4.188,7.859,7.875,13.168,9.084,2.246.302,4.493.604,6.738.906,4.576-.014,8.84-1.168,12.794-3.461.453-.212.909-.414,1.369-.609-2.035.859-4.07,1.717-6.105,2.576,2.771-1.164,5.447-2.451,8.138-3.711,1.967-.668,3.97-1.198,6.003-1.616,2.811-.107,5.61.04,8.415-.185,2.493-.2,5.016-.178,7.523-.017,2.041.476,4.055,1.098,6.022,1.829,2.196,1.035,4.333,2.21,6.346,3.563,2.497,2.172,4.765,4.547,6.919,7.084.036.05.073.099.108.149.649.914,1.274,1.845,1.874,2.791,1.265,1.994,2.422,4.054,3.471,6.168.391.788.75,1.589,1.115,2.388.142.366.287.732.424,1.1.839,2.249,1.573,4.536,2.205,6.852.593,2.17,1.084,4.365,1.487,6.578.152.834.277,1.671.411,2.507.065.645.145,1.29.206,1.935.439,4.66.662,9.437.198,14.102-.042.419-.18,1.571-.207,1.856-.134.921-.273,1.842-.433,2.759-.458,2.621-1.014,5.224-1.652,7.807-1.569,6.349-3.679,12.505-6.141,18.52-1.225,1.559-2.454,3.115-3.652,4.694-.703.926-.295,1.951.484,2.538-.328.7-.628,1.413-.966,2.109-2.499,5.151-5.173,10.23-7.949,15.237-1.462,2.638-2.963,5.255-4.491,7.855-1.496,2.546-2.41,5.428-3.507,8.166-1.208,3.015,2.933,4.509,4.915,2.861,1.563-1.3,3.226-2.541,4.692-3.949,1.568-1.506,2.893-3.351,4.266-5.038,2.704-3.322,5.346-6.696,7.921-10.119,3.898-5.182,7.51-10.617,10.81-16.215,12.441-13.917,26.546-26.357,41.803-37.127,12.607-8.9,25.94-16.633,39.717-23.566,3.402-1.712,6.838-3.358,10.303-4.938,1.736-.791,3.479-1.565,5.23-2.322.245-.106.489-.21.734-.316.991-.253,1.991-.83,2.936-1.212,7.121-2.881,14.357-5.48,21.685-7.785,15.965-5.021,32.31-8.871,48.875-11.267,20.608-2.604,41.672-2.78,62.304-.295,9.977,1.539,19.82,3.907,29.245,7.54,5.102,2.317,9.973,5.066,14.52,8.345,3.114,2.582,6.047,5.334,8.705,8.384,1.823,2.527,4.076,4.624,6.809,6.24,1.777.75,3.552,1.499,5.329,2.249,6.718,2.174,14.057.171,19.446-3.993,4.837-3.737,7.579-8.499,8.392-14.552.664-2.965.531-5.93-.398-8.895Z" fill="#fff"/>
  <path d="M965.442,1300.318c-2.734.927-5.5,1.736-8.286,2.441,2.813-1.302,5.668-2.488,8.642-3.303,2.749-.753,1.202-4.937-1.563-3.707-6.675,2.972-14.574,3.595-21.781,4.546-6.791.896-13.521,2.065-20.342,2.766-4.288.441-8.585.764-12.886,1.032-4.707-.913-9.367-2.121-13.942-3.656-2.542-.853-5.062-1.787-7.538-2.818-.223-.097-.535-.233-.626-.274-.831-.383-1.669-.753-2.496-1.144-1.384-.655-2.754-1.338-4.11-2.048-4.874-2.551-9.555-5.467-14.011-8.694-.557-.403-1.105-.818-1.66-1.223-.488-.356-.622-.401-.585-.321-.757-.697-1.61-1.658-1.872-1.906-1.963-1.857-3.861-3.782-5.693-5.769-3.518-3.817-7.126-7.56-10.407-11.592-.235-.289-.465-.581-.697-.872-.007-.009-.011-.015-.018-.024-.886-1.192-1.75-2.4-2.591-3.624-1.691-2.461-3.29-4.984-4.793-7.564-2.586-4.437-4.923-9.042-7.025-13.735-3.568-9.028-6.077-18.563-7.65-28.149-.535-5.12-.61-10.248-.126-15.376.256-1.703.43-3.409.215-5.103-.361-2.844-.6-5.68-1.431-8.426-1.955-6.459-6.832-11.603-13.415-13.415-6.396-1.761-14.104-.04-18.688,4.94-2.98,3.237-4.936,6.282-6.597,10.219-1.835,4.347-2.163,9.192-2.455,13.89-.271,4.374-.117,8.771.377,13.124.666,5.878,1.412,11.901,2.966,17.633,1.502,5.542,4.037,10.949,6.408,16.147,6.672,14.631,16.52,27.932,28.248,38.909,6.161,5.767,12.906,11.447,20.291,15.554,4.491,2.498,9.16,4.77,13.886,6.885-5.455-.246-10.906-.58-16.348-1.077-7.295-.666-14.588-1.161-21.86-2.081-.44-.056-.88-.113-1.32-.171-.514-.075-1.172-.17-1.373-.199-1.643-.238-3.285-.489-4.924-.753-3.641-.586-7.271-1.236-10.89-1.94-52.674-10.246-107.947-27.792-161.185-10.964-14.005,4.426-26.459,11.131-37.642,20.633-5.692,4.836-10.378,10.551-14.744,16.597-1.664,2.304-3.204,4.715-4.52,7.233-.66,1.262-1.28,2.537-1.873,3.832-.247.538-.495,1.078-.736,1.618-2.146,3.701-3.226,7.692-3.239,11.975.092,2.348.424,4.652.994,6.91,1.904,7.844,8.651,14.207,16.318,16.318,8.156,2.246,16.702-.197,22.732-6.008,5.838-5.627,6.796-13.45,9.293-20.723,1.716-3.566,3.732-6.962,6.018-10.195,4.228-5.113,9.032-9.77,14.203-13.919,2.636-1.926,5.359-3.746,8.184-5.374,1.83-1.054,3.718-2.016,5.617-2.939.893-.434,1.792-.857,2.696-1.267.271-.123.543-.243.815-.363,4.025-1.6,8.099-2.99,12.286-4.106,2.043-.545,4.101-1.035,6.171-1.469.966-.203,1.934-.392,2.905-.569.413-.075.83-.142,1.244-.219,5.566-.398,11.129-.58,16.71-.456,2.862.063,5.717.173,8.564.472,1.341.141,2.682.293,4.02.458.485.059.97.122,1.454.185.534.079,1.254.185,1.408.208,11.731,1.735,23.326,4.266,34.87,6.954,11.602,2.703,23.151,5.655,34.856,7.886,12.086,2.304,24.287,4.076,36.541,5.194,23.603,2.154,47.353.465,70.748-3.068,10.142-1.531,20.009-4.102,29.759-7.179,16.031-1.578,31.507-5.774,46.061-13.068,2.038-1.022.62-4.446-1.563-3.707Z" fill="#fff"/>
  <path d="M387.797,1337.004c-9.017-2.717-18.231-1.825-27.466-.759-9.029,1.041-18.059,2.443-26.873,4.696-16.627,4.251-32.901,11.081-47.767,19.628-13.758,7.909-26.086,18.249-36.874,30.059,2.686-3.811,5.386-7.596,8.072-11.359,11.612-16.269,23.966-32.37,33.567-49.953,9.765-17.883,17.775-37.33,21.38-57.457,2.118-11.823,2.941-24.044,1.786-36.016-.616-6.382-1.534-12.795-3.072-19.027-.669-2.711-1.458-5.393-2.364-8.035-.764-2.227-1.565-4.562-2.737-6.605-1.843-3.213-4.834-5.309-7.9-7.201-7.947-4.904-20.172-.434-22.193,9.029-.467,2.184-1.085,4.354-1.085,6.616,0,2.822.622,4.679,1.536,7.087.883,2.324,1.671,4.684,2.367,7.07,1.188,4.07,2.073,8.213,2.745,12.395,1.191,10.632.802,21.245-.451,31.857-2.151,14.505-6.296,28.58-11.85,42.145-.029.071-.066.169-.105.277-.3.905-.777,1.8-1.161,2.672-.659,1.493-1.31,2.988-1.954,4.487-1.676,3.898-3.437,7.761-5.259,11.593-3.223,6.778-6.643,13.46-10.15,20.095-14.484,27.405-30.448,53.91-40.657,83.326-5.601,16.14-9.295,32.982-9.831,50.095-.07,2.234,3.598,2.828,3.983.539.244-1.448.558-2.871.847-4.303.619-.146,1.189-.544,1.461-1.319,4.945-14.074,11.672-27.018,20.354-39.149,8.428-11.777,18.562-22.423,29.712-31.657,1.246-1.032,2.509-2.043,3.781-3.043.249-.19.964-.741,1.153-.884.9-.677,1.807-1.345,2.72-2.004,2.865-2.069,5.795-4.043,8.772-5.945,6.592-4.212,13.507-7.859,20.403-11.537,3.534-1.885,7.131-3.653,10.782-5.301.641-.289,1.287-.57,1.93-.854.342-.112.729-.322,1.007-.435,1.843-.755,3.698-1.48,5.565-2.174,7.488-2.784,15.158-5.077,22.944-6.867,4.35-1,8.736-1.888,13.136-2.636,1.064-.181,2.128-.352,3.194-.514.302-.046.604-.09.905-.134,1.961-.235,3.92-.47,5.886-.652,4.435-.412,8.886-.661,13.34-.743,2.305-.042,4.617.044,6.919-.061,3.262-.149,6.344-.903,9.501-1.622,5.402-1.23,9.926-7.154,9.677-12.711-.265-5.915-3.925-10.977-9.677-12.71Z" fill="#fff"/>
  <g>
    <path d="M809.605,606.822c2.872-1.063,1.747-.729.923-.4-.089.039-.179.073-.268.111-.219.095-.436.194-.655.289Z" fill="#fff"/>
    <path d="M1097.082,510.808c-10.737,3.315-21.275,7.222-32.065,10.398-10.499,3.09-21.107,5.807-31.776,8.243-21.959,5.015-44.12,9.198-66.321,12.982-22.066,3.761-44.048,8.014-66.001,12.395-20.192,4.03-40.424,7.494-60.434,12.426-40.308,9.935-80.605,24.067-116.065,45.967-34.556,21.342-64.661,50.598-83.57,86.826-9.189,17.606-16.462,36.629-19.935,56.23-1.923,10.853-3.241,21.918-3.215,32.955.026,10.945,1.592,22.01,4.055,32.664.929,4.019,1.925,7.913,4.049,11.562,1.894,3.254,4.868,6.422,7.461,9.287,2.467,2.726,6.647,4.953,10.157,5.919,5.013,1.38,10.256.836,14.987-1.16,3.784-1.597,6.695-3.838,9.207-7.088,3.357-4.345,4.322-8.464,4.942-13.946.118-1.042.245-2.083.382-3.122-.09.668-.179,1.335-.269,2.003.511-4.237.637-7.88-.551-12.716-.419-1.706-.844-3.408-1.215-5.125-.519-2.404-.943-4.824-1.328-7.251-1.339-12.036-1.525-24.089-.21-36.134,2.082-13.211,5.747-26.104,10.722-38.517,6.82-15.455,15.523-30.203,25.651-43.721,10.864-13.652,23.339-25.786,37.016-36.61,18.334-13.898,38.325-25.612,59.266-35.114,2.516-1.142,5.049-2.242,7.584-3.34-.108.04-.207.077-.327.121.332-.122.655-.27.982-.41.015-.006.03-.013.046-.02.068-.03.144-.06.222-.091.286-.124.575-.241.862-.36,1.551-.642,3.106-1.276,4.664-1.901,5.672-2.276,11.388-4.439,17.139-6.506,11.224-4.033,22.579-7.698,34.017-11.076,11.681-3.45,23.444-6.618,35.249-9.614,12.555-3.187,25.341-5.589,38.019-8.236,25.778-5.382,51.36-11.569,76.702-18.751,14.058-3.983,27.956-8.78,41.617-13.954,7.034-2.664,14.154-5.381,21.139-8.388-10.83,8.4-21.255,17.301-31.75,26.114-6.578,5.524-12.911,11.342-18.97,17.431-6.577,6.61-12.245,14.424-17.79,21.89-21.177,28.512-35.651,62.626-42.268,97.489-2.063,10.871-3.575,21.883-4.551,32.904-.424,4.782-.952,9.641-.622,14.437.167,2.413.364,4.825.594,7.233.233,2.443.375,4.983.903,7.371.535,2.42,1.713,4.911,2.869,7.146,5.582,10.786,23.863,11.345,29.279,0,1.027-2.153,2.138-4.428,2.736-6.737.642-2.482.693-5.214.963-7.779.269-2.557.577-5.109.912-7.658-.228,1.697-.456,3.393-.684,5.089,1.421-10.546,1.757-21.194,2.986-31.772,1.911-13.32,4.573-26.559,8.165-39.526,3.699-13.352,7.511-26.68,12.474-39.628.604-1.577,1.222-3.148,1.854-4.714.488-1.21,2.985-6.715.668-1.672,1.971-4.288,3.643-8.711,5.419-13.082.17-.396.339-.793.51-1.188.682-1.571,1.378-3.137,2.086-4.697,1.531-3.369,3.124-6.709,4.78-10.019,6.168-12.331,12.39-24.711,19.599-36.474,8.175-13.338,19.214-24.992,30.799-35.417.636-.572.706-1.361.45-2.048,2.927-1.473,5.814-3.01,8.625-4.662,3.603-2.117,1.249-8.135-2.891-6.857Z" fill="#fff"/>
  </g>
  <g>
    <path d="M574.068,780.464c.21-.082.422-.157.632-.241.183-.081.364-.166.547-.248-.398.148-1.037.4-1.443.589.013-.005.026-.01.039-.015.077-.03.147-.058.226-.086Z" fill="#fff"/>
    <path d="M650.921,679.304c-4.047-10.356-9.065-19.312-16.568-27.624-6.199-6.867-14.148-12.693-22.581-16.531-10.702-4.87-21.741-7.954-33.621-7.915-11.515.038-23.398,2.859-33.035,9.353-3.107,2.094-6.195,4.386-8.935,6.943-2.573,2.402-5.006,6.228-6.746,9.495-5.815,10.917-3.551,24.138,6.346,31.784,4.156,3.211,9.532,5.532,14.929,5.29,6.783-.304,12.288-2.737,17.422-7.216.532-.464,1.07-.915,1.62-1.357-1.688,1.304-3.376,2.608-5.064,3.912,2.478-1.912,4.906-3.875,7.338-5.833,1.692-1.155,3.463-2.166,5.312-3.051,2.138-.764,4.315-1.379,6.535-1.834,2.683-.181,5.366-.158,8.048.05,2.311.441,4.595,1.035,6.817,1.797,2.145,1.079,4.197,2.313,6.177,3.677,2.455,2.104,4.721,4.401,6.81,6.873,1.783,2.535,3.372,5.198,4.726,7.985,1.675,4.462,2.901,9.059,3.705,13.757.579,5.796.544,11.608-.061,17.399-.962,5.748-2.49,11.364-4.606,16.795-.93,2.02-1.911,4.016-3.014,5.95-.709,1.244-1.454,2.468-2.235,3.669-.554.852-2.392,2.683-2.699,3.742-.358.42-.715.84-1.08,1.253-1.149,1.298-2.337,2.563-3.56,3.793-2.19,2.204-4.501,4.285-6.899,6.262-.56.288-1.221.979-1.662,1.298-1.403,1.013-2.831,1.99-4.283,2.931-2.911,1.887-5.916,3.627-8.996,5.224-1.426.74-2.868,1.449-4.324,2.127-.494.23-.992.452-1.489.675.456-.17.597-.203-.298.153-.082.033-.166.062-.248.095-.054.024-.108.05-.163.074-.082.036-.272.098-.469.167-.075.029-.151.057-.226.086-.022.008-.041.017-.061.026.008-.004.015-.007.023-.011-2.769,1.081-5.558,2.101-8.395,2.995-6.777,2.135-13.719,3.666-20.739,4.728-7.115.843-14.277,1.215-21.442,1.019-3.633-.099-7.263-.332-10.88-.691-.792-.079-1.583-.166-2.373-.257-.594-.291-2.01-.267-2.559-.354-1.022-.161-2.043-.332-3.062-.513-7.251-1.288-14.41-3.08-21.42-5.335-3.564-1.146-7.088-2.414-10.567-3.796-.608-.241-1.214-.493-1.82-.739-.057-.025-.115-.049-.172-.074-1.78-.778-3.547-1.587-5.3-2.424-6.758-3.229-13.47-6.73-19.934-10.515-3.121-1.827-6.185-3.749-9.188-5.764-1.497-1.004-2.98-2.032-4.446-3.082-1.374-.985-3.6-2.116-4.647-3.445.142.18,2.192,1.726.557.421-.305-.244-.612-.485-.917-.729-.712-.568-1.42-1.142-2.122-1.721-1.503-1.24-2.987-2.503-4.449-3.791-2.721-2.396-5.368-4.876-7.936-7.435-5.272-5.255-10.307-10.791-14.937-16.621-.135-.17-.269-.341-.404-.511-.117-.15-.362-.464-.568-.736-.627-.828-1.246-1.662-1.857-2.501-1.22-1.675-2.409-3.373-3.566-5.092-2.308-3.432-4.407-6.97-6.5-10.533-.452-.769-.868-1.557-1.305-2.334-.919-2.215-1.868-4.417-2.848-6.605-1.94-4.33-3.758-8.796-6.718-12.522-.333-.42-.724-.617-1.12-.661-2.01-2.886-7.144-1.569-7.002,2.197.344,9.107,3.031,18.375,6.38,26.849-.33-.833.636,1.636.718,1.832.543,1.317,1.097,2.629,1.66,3.937.872,2.025,1.783,4.033,2.735,6.022,1.84,3.846,3.828,7.62,5.959,11.312.448.776.931,1.531,1.391,2.299,1.298,7.578,2.197,15.232,2.397,22.869.165,6.301.094,12.607-.204,18.903-.15,3.174-.346,6.329-.739,9.482-.022.176-.04.322-.055.445-.021.136-.045.299-.079.529-.081.554-.159,1.11-.242,1.665-.289,1.945-.602,3.886-.937,5.824-2.14,12.374-4.484,24.575-7.786,36.703-3.702,13.596-8.166,27.14-13.534,40.18-3.288,7.572-6.911,15.013-10.748,22.317-2.136,4.066-4.388,8.071-6.755,12.006-1.185,1.971-2.458,3.888-3.641,5.859-1.832,3.052-2.731,6.286-3.475,9.697-1.387,6.361.454,12.676,5.705,16.733,4.657,3.598,12.554,4.935,17.68,1.245,2.466-1.775,5.013-3.546,7.172-5.693,2.412-2.4,4.121-5.793,5.818-8.742,2.078-3.611,4.059-7.276,5.944-10.991,4.368-8.606,8.142-17.489,11.384-26.579,2.841-7.963,5.271-16.072,7.293-24.282,2.27-9.215,3.58-18.606,4.589-28.039,1.846-17.258,1.354-34.477-.986-51.649-.016-.118-.084-.733-.122-1.055-.019-.225-.04-.469-.041-.485-.108-1.151-.25-2.3-.387-3.447-.302-2.542-.641-5.081-.998-7.616-.573-4.073-1.246-8.132-2.018-12.171-.19-.993-.383-1.986-.574-2.979,5.545,6.714,11.577,13.028,18.009,18.854,7.042,6.378,14.597,12.262,22.469,17.579,7.158,4.834,15.067,8.65,23.001,12.027,17.988,7.656,36.488,12.515,55.997,14.233,38.789,3.416,81.09-7.781,109.104-35.831,13.34-13.357,23.185-30.143,27.197-48.676,3.935-18.177,3.279-37.582-3.529-55.005Z" fill="#fff"/>
  </g>
  <g>
    <path d="M1927.782,2466.119c-3.863-7.969-9.614-15.412-15.709-21.76-2.347-2.445-4.876-4.685-7.525-6.796-5.466-4.356-11.425-9.465-18.313-11.389-1.084-.445-2.165-.901-3.252-1.339-17.912-8.879-39.256-11.876-58.928-12.931-18.966-1.018-37.844.66-56.747,1.973-48.48,3.367-96.895,10.225-144.671,19.03-46.878,8.639-93.31,19.567-139.724,30.375-46.419,10.81-92.64,22.451-139.103,33.074-46.5,10.632-93.189,20.783-140.393,27.771-4.684.693-9.374,1.343-14.064,1.985-18.188,2.372-36.617,3.692-54.917,4.751-18.729,1.085-37.537,1.718-56.199-.53-11.875-1.822-23.591-4.571-34.738-9.124,1.599.675,3.198,1.349,4.796,2.024-3.173-1.366-6.406-2.539-9.616-3.79-1.615-.713-3.233-1.421-4.814-2.21-.995-.496-2.004-.986-2.968-1.541-1.441-.829-2.968-1.414-4.498-1.989-2.95-1.458-6.019-3.277-9.042-4.087-.148-.069-.3-.131-.448-.201-.729-.346-1.445-.746-2.182-1.072-.271-.12-.429-.172-.531-.192-.027-.021-.044-.035-.072-.057-.867-.861-1.888-1.456-3.065-1.786-2.272-.956-2.212-.934.182.068-.12-.351-1.377-.864-1.675-1.058-.551-.357-1.098-.72-1.64-1.091-.076-.052-.165-.121-.257-.196.034.032.049.046.085.081-3.452-3.298-8.538-4.172-12.852-2.268-.101.016-.175.027-.309.048-1.131.175-2.017.383-2.674,1.43-.396.631-1.768,2.177-.369.79-3.544,3.515-4.426,9.576-1.791,13.884,1.2,1.963,1.911,4.216,3.159,6.157.019.036.024.043.04.073.02.046.034.081.055.129.33,1.177.925,2.198,1.786,3.065,1.286,1.661,1.449,1.874.49.639-1.351-1.446-.314-.264-.005.27.33.571.666,1.139,1.009,1.702,3.006,4.934,6.587,9.286,10.606,13.438-.125-.163-.251-.325-.377-.487,3.894,4.324,9.449,7.781,14.241,10.768,5.345,3.332,10.852,5.81,16.722,8.143,10.187,4.048,20.686,6.513,31.532,7.971,23.916,3.213,47.771,1.88,71.631-1.149,18.214-2.312,36.36-5.095,54.484-8.015,17.193,1.58,34.262,4.024,51.133,7.8,9.646,2.159,19.194,4.785,28.55,7.977,3.849,1.314,7.662,2.734,11.431,4.262.505.204,1.008.412,1.512.619.027.011.19.08.358.15.292.126.783.337.896.386.373.162.745.324,1.116.488,1.984.875,3.956,1.779,5.912,2.715,7.213,3.454,14.149,7.627,20.807,12.047,3.397,2.255,6.684,4.649,9.959,7.076.217.173.438.342.653.512.737.584,1.468,1.173,2.196,1.769,1.557,1.275,3.094,2.576,4.606,3.904,3.418,3.002,6.491,6.42,9.475,9.848,1.411,1.622,2.79,3.271,4.134,4.948.182.227.366.456.547.689.615.82,1.229,1.639,1.83,2.47,4.769,6.603,8.602,13.922,11.878,21.385,3.371,8.488,6.011,17.413,7.528,26.425.902,8.989.535,18.076-.435,27.059-.921,5.746-2.372,11.375-4.415,16.824-1.703,3.56-3.672,6.983-5.918,10.227-2.506,2.856-5.259,5.471-8.28,7.806.506-.391,1.012-.782,1.518-1.173-2.484,2.015-4.605,4.081-6.623,7.178-.452.693-.882,1.399-1.338,2.09-.891,1.347-1.691,2.746-2.57,4.1-4.229,6.511-3.831,15.663,0,22.21,4.004,6.841,11.179,10.671,18.999,10.897,4.452.129,8.917-.462,13.255-1.464,6.708-1.551,12.239-6.458,17.173-11.049,5.498-5.116,10.247-11.296,14.178-17.674,8.301-13.468,11.899-28.697,13.581-44.227,1.452-13.41-.907-27.435-5.202-40.184-2.421-7.183-5.361-14.428-9.176-20.999-3.975-6.848-8.877-13.254-13.9-19.348-8.781-10.655-19.325-19.91-30.302-28.232-10.66-8.082-22.003-15.53-33.913-21.635-26.631-13.651-55.457-21.833-85.054-25.702,4.394-.8,8.782-1.629,13.171-2.457,17.16.37,34.265,2.031,51.179,5.046,43.491,7.755,85.17,22.373,126.312,38.114,41.527,15.888,83.196,32.226,126.828,41.435,38.427,8.11,78.077,9.585,116.656,1.596,35.851-7.425,69.58-23.877,98.315-46.436,2.812-2.207,5.518-4.54,8.164-6.942,3.627-2.57,7.169-5.247,10.669-8.002-1.584,1.224-3.168,2.448-4.752,3.672,3.93-1.984,7.534-5.627,9.538-9.542,2.139-4.179,2.859-7.827,3.297-12.596.136-1.482.235-2.966.314-4.452.379-7.133-4.19-14.259-10.194-17.773-6.72-3.932-14.024-3.295-20.777,0-2.681,1.308-5.097,2.372-7.493,4.223-2.751,2.125-2.664,2.056-4.792,4.81-2.054,2.659-3.199,5.3-4.326,8.458-.12.337-.259.672-.382,1.01-.421.936-.816,1.884-1.258,2.811-.443.927-.989,1.788-1.575,2.625-6.136,7.731-12.94,14.667-20.649,20.825-8.678,6.376-17.977,11.477-27.838,15.814-17.803,7.297-36.503,11.97-55.527,14.716-12.427,1.565-24.953,2.28-37.479,2.074-6.371-.105-12.735-.446-19.082-.999-3.968-.346-7.931-.763-11.885-1.246-1.971-.241-3.942-.49-5.913-.74-.08-.01-.186-.02-.302-.031-1.273-.081-2.575-.364-3.834-.55-32.293-4.777-63.838-13.493-94.99-23.087-55.806-17.185-111.28-37.722-169.443-44.701,35.226-7.631,70.233-16.237,105.19-25.03,43.572-10.96,86.995-22.767,130.824-32.658,43.669-9.855,87.59-18.728,131.888-25.268,4.594-.678,9.193-1.316,13.794-1.943,16.487-2.164,33.01-3.841,49.597-5.046,16.689-1.214,33.586-2.494,50.325-2.087,7.256.176,14.504.602,21.728,1.303l-5.076-.682c2.48.345,4.963.643,7.445.948,13.752,1.98,27.362,5.143,40.291,10.272,4.805,2.161,9.482,4.634,13.71,7.766,2.764,2.179,5.529,4.355,8.343,6.495-1.688-1.304-3.375-2.608-5.063-3.912,4.095,3.17,7.832,6.728,11.187,10.65,2.322,3.386,4.312,6.937,6.115,10.657,2.679,5.526,9.592,10.209,15.331,11.789,6.14,1.691,14.317.928,19.767-2.586,5.477-3.531,10.299-8.79,11.789-15.331,1.6-7.025.559-13.279-2.586-19.767Z" fill="#fff"/>
    <path d="M1007.669,2504.033c-1.682-1.603-.706-.574,0,0h0Z" fill="#fff"/>
  </g>
  <g>
    <path d="M871.611,2455.455c-.219-28.31-1.228-56.596-2.081-84.893-.239-7.943-.707-15.86-1.192-23.792-.242-3.963-.411-7.939-.724-11.896-.361-4.56-1.778-8.898-3.22-13.207-1.322-3.949-5.413-6.196-9.402-4.515-2.166.913-3.456,2.607-3.937,4.556-.032-.014-.064-.027-.097-.041-1.18,3.267-2.439,6.573-3.092,9.998-.771,4.04-.835,8.305-1.184,12.402-.599,7.024-1.321,14.049-1.703,21.088-.773,14.239-1.546,28.478-2.319,42.717-.54,9.946-.977,19.894-1.381,29.842-6.763-10.405-15.161-19.665-25.367-27.17-8.636-6.35-19.191-10.678-29.646-12.94-6.558-1.418-13.089-2.283-19.622-2.192-13.915-2.642-28.017-2.301-41.994-.093-32.72,5.169-61.98,22.046-91.812,35.43-2.089.937-4.182,1.864-6.282,2.776-.92.4-1.842.793-2.764,1.188-.576.247-1.159.482-1.738.72-4.121,1.693-8.29,3.229-12.521,4.625-8.08,2.666-16.234,4.328-24.609,5.56-10.111,1.161-20.294,1.297-30.415.237-4.709-.783-9.36-1.866-13.898-3.368-2.607-.863-5.179-1.821-7.782-2.695-1.309-.439-2.605-.913-3.89-1.419-6.799-2.678-15.41-1.701-21.615,1.93-7.394,4.326-12.639,12.761-12.439,21.389.162,7.019,2.605,13.413,7.682,18.414,4.039,3.98,8.935,5.999,14.172,7.7,7.145,2.321,14.763,3.155,22.257,3.388,13.029.405,26.366-1.648,38.82-5.429,12.592-3.823,24.211-9.599,35.882-15.553,39.86-20.334,74.862-52.677,119.01-63.109-3.011,2.342-5.766,4.983-8.095,7.945-4.452,5.661-7.55,11.059-10.235,17.758-2.207,5.503-3.142,11.145-3.751,17.04-1.562,15.108,4.352,29.665,14.022,40.994,5.899,6.911,13.867,11.86,22.238,15.124,2.809,1.096,5.65,1.9,8.631,2.368,2.269.356,4.775.864,7.071.948,2.574.095,5.338-.367,7.872-.852,1.567-.3,3.095-.743,4.605-1.253,10.645-3.599,17.582-13.189,16.051-24.587-.632-4.702-2.563-9.562-6.163-12.866-1.511-1.168-3.023-2.336-4.535-3.504-2.996-1.737-6.206-2.688-9.605-2.946-1.416-.265-2.832-.53-4.271-.724-1.455-.196-2.909-.31-4.362-.426-1.897-.404-3.779-.919-5.617-1.541-1.088-.561-2.145-1.174-3.176-1.833-.874-.787-1.709-1.616-2.503-2.482-.66-1.024-1.265-2.083-1.819-3.169-.467-1.423-.865-2.863-1.168-4.331-.152-2.2-.134-4.399.033-6.6.515-2.719,1.255-5.384,2.205-7.983.94-1.997,1.954-3.968,3.096-5.849.284-.468.597-.915.908-1.364.03-.097.482-.818.88-1.294.179-.26.365-.516.536-.782-.158.246-.298.46-.426.656.591-.683,1.201-1.349,1.837-1.991.878-.887,1.82-1.689,2.75-2.516.594-.412,1.179-.834,1.785-1.229,1.352-.88,2.748-1.691,4.183-2.429.669-.344,1.352-.656,2.029-.981.417-.163.835-.324,1.256-.476,3.062-1.106,6.177-1.807,9.358-2.455.101-.021.314-.055.503-.086.678-.086,1.36-.165,2.04-.215,1.916-.14,3.842-.062,5.757.073,5.408.379,11.704,2.257,17.126,4.924,19.933,9.802,31.006,29.99,36.38,50.702-.263,7.962-.518,15.925-.772,23.89-.253,7.943-.096,15.848.062,23.792.079,3.984.252,7.923.567,11.896.157,1.983.272,3.974.518,5.948.22,1.769.42,3.253.719,4.91.063.348.236,1.57.36,2.348-.12,6.729,6.956,12.96,13.461,12.668,3.475-.155,7.08-1.297,9.501-3.935,2.57-2.8,3.48-5.757,3.936-9.502-.447,3.666.567-1.688.737-2.603.503-2.705.733-5.476,1.016-8.212.373-3.606.744-7.191.904-10.814.309-7.015.852-14.066.798-21.088-.11-14.239-.22-28.478-.33-42.717Z" fill="#fff"/>
    <path d="M755.018,2425.678c-.296.43-.582.866-.88,1.294-.024.078.223-.244.991-1.42-.022.025-.046.048-.067.073-.014.016-.029.035-.043.053Z" fill="#fff"/>
  </g>
  <path d="M1594.636,429.523c-2.128-6.576-5.991-11.177-11.649-15.149-5.179-3.636-10.521-6.564-16.334-9.065-7.441-3.202-14.703-6.227-22.587-8.091-13.352-3.157-27.155-4.834-40.871-4.978-26.225-.276-52.602,3.187-78.301,8.147-27.275,5.264-53.982,12.854-80.994,19.241-8.454,1.999-16.893,4.063-25.327,6.154,6.536-3.907,12.813-8.17,19.113-12.473,16.792-11.469,31.911-25.289,43.838-41.815,8.551-11.848,14.57-27.247,9.373-41.769-4.12-11.512-13.11-21.346-25.721-23.041-8.85-1.189-17.647,1.835-23.2,9.022-1.808,2.34-3.284,4.948-4.013,7.868-.787,3.154-.994,7.119,0,10.189.313.969.727,1.934,1.163,2.889.345.857.64,1.497.981,2.112.022.049.046.1.069.148-.014-.034-.029-.068-.043-.101.486.868,1.078,1.697,2.097,3.016,1.265,1.637,2.72,2.934,4.265,4.168-.539-.416-1.078-.833-1.618-1.249,1.356,1.172,2.766,2.244,4.214,3.26.111.084.219.166.331.251-.097-.075-.195-.151-.292-.225.966.676,1.936,1.343,2.963,1.939.384.223.768.441,1.152.66.003.519-.022,1.042-.045,1.561-.251.92-.563,1.827-.902,2.722-2.758,6.138-6.093,12.041-9.728,17.691-1.838,2.856-3.769,5.653-5.785,8.387-.19.257-1.235,2.008-1.522,2.03.34-.438.68-.877,1.02-1.315-.355.456-.712.911-1.072,1.364-1.166,1.469-2.356,2.919-3.567,4.35-4.563,5.391-9.383,10.474-14.724,15.098-2.603,2.253-5.268,4.428-7.972,6.558-.137.109-.251.199-.346.274-.114.083-.249.183-.436.322-.701.52-1.395,1.05-2.097,1.569-1.637,1.21-3.291,2.399-4.959,3.565-18.265,12.766-38.093,22.522-58.699,30.559-11.01,2.929-22.004,5.919-32.943,9.094-8.093,2.349-16.164,4.781-24.222,7.247-7.794,2.386-15.886,4.381-23.24,7.917-.025.012-.052.022-.076.035-.047.022-.095.042-.142.065-1.748.849-.971,4.006,1.023,3.779,5.474-.622,10.663-2.086,15.998-3.44.423-.107.847-.21,1.27-.317.098-.017.2-.031.298-.048,5.36-.953,10.717-1.927,16.066-2.944,10.674-2.028,21.319-4.221,31.889-6.738,12.006-2.86,23.917-6.187,35.636-10.081,9.618-2.085,19.26-4.042,28.932-5.732,42.103-7.36,83.644-13.17,126.377-15.816,20.441-1.266,41.136-1.544,61.531.678,15.258,2.437,30.372,6.31,44.74,12.023,11.039,4.88,21.646,10.612,31.85,17.062,5.445,3.442,13.409,4.242,19.533,2.555,5.88-1.619,12.252-6.166,15.149-11.649,3.108-5.883,4.666-13.01,2.555-19.533Z" fill="#fff"/>
</svg>