
<svg id="a" data-name="Layer 1" xmlns="http://www.w3.org/2000/svg" viewBox="0 0 3000 3000">
  <path d="M1461.084,2546.49c-2.144-3.07-35.424-49.583-111.457-95.468-46.09-27.815-98.695-50-156.355-65.94-72.667-20.089-153.649-30.274-240.699-30.274h-184.049v-46.639c0-52.558-42.759-95.317-95.317-95.317h-46.639v-377.092c-34.74-42.336-128.563-171.856-128.563-335.76s93.823-293.425,128.563-335.761v-377.092h46.639c52.558,0,95.317-42.759,95.317-95.317v-46.639h184.049c87.049,0,168.032-10.186,240.699-30.274,57.659-15.939,110.265-38.125,156.355-65.94,76.224-46,109.48-92.632,111.472-95.49l39.267-61.761,38.561,61.784c2.144,3.069,35.424,49.583,111.455,95.467,46.089,27.815,98.693,50,156.351,65.94,72.665,20.089,153.647,30.274,240.694,30.274h184.049v46.639c0,52.558,42.758,95.317,95.317,95.317h46.639v377.092c34.739,42.336,128.562,171.857,128.562,335.761s-93.823,293.424-128.562,335.76v377.092h-46.639c-52.558,0-95.317,42.758-95.317,95.317v46.639h-184.049c-87.047,0-168.029,10.186-240.694,30.274-57.658,15.939-110.262,38.125-156.351,65.94-76.266,46.027-109.516,92.686-111.473,95.494l-39.265,61.757-38.56-61.783Z"/>
  <g>
    <path d="M1803.305,1162.274c-14.113-1.069-26.343,8.7-36.524,17.217-86.849,72.65-124.912,291.172-139.721,402.481-4.134,31.072-9.058,89.107-1.399,118.402,7.943,30.383,32.905,11.419,46.758-4.119,49.481-55.498,25.679-148.618,89.257-202.706,62.807-53.431,129.643,3.581,87.749,75.568-13.75,23.626-33.925,37.993-58.443,49.021-12.268,5.518-25.58,3.733-30.849,19.842-11.212,34.275,12.971,51.221,44.436,36.317,60.083-28.46,89.274-132.997,115.877-188.256,6.819-14.164,9.704-21.687,25.814-26.903,24.866-8.051,56.512-11.743,82.866-18.52,17.36-4.464,50.82-18.539,65.629-19.701,19.249-1.511,26.911,18.049,16.256,32.638-31.021,52.832-85.444,102.271-116.02,153.647-4.347,7.304-9.638,15.847-6.887,24.774,2.875,9.329,50.599,22.845,60.961,21.214,39.54-6.225,68.907-91.426,82.115-124.728,11.015-27.773,19.643-60.691,32.608-87.016,5.328-10.819,13.02-23.719,25.157-27.727,13.252-4.376,38.943-5.266,54.319-8.373,27.387-5.535,47.846-11.155,72.33-24.999,11.372-6.43,18.253-19.733,33.61-12.073,8.101,4.041,11.728,14.787,7.667,22.917-30.428,47.317-66.341,92.06-94.22,140.991-5.05,8.864-12.532,18.35-11.518,29.244.943,10.132,24.513,1.514,31.554.923,114.168-9.589,102.037,123.565,27.281,171.224-87.544,55.812-228.102,79.555-329.987,97.857-222.435,39.957-447.17,64.543-670.219,100.32-78.196,12.542-172.046,11.255-231.563,62.25-14.461,12.39-28.034,37.317-39.633,45.525-28.887,20.445-45.386-14.425-30.334-42.493,40.036-74.657,124.859-75.604,200.441-89.312,285.591-51.795,576.513-75.955,860.542-137.101,52.824-11.372,110.234-24.351,160.314-44.484,35.534-14.285,104.498-47.072,98.672-93.589-6.688-53.4-89.941-16.571-118.157-2.934-6.915,3.342-27.211,17.214-30.813,17.872-29.009,5.298-7.58-41.879-1.251-53.985,23.574-45.088,58.596-88.378,84.49-132.478,4.368-10.622,3.52-19.025-10.058-18.248-36.794,2.106-57.293,13.44-73.005,46.727-27.328,57.896-57.558,195.324-135.952,200.605-33.726,2.272-55.97-20.673-92.729-15.653-11.016,1.504-28.093,14.2-35.975,6.527-10.55-10.27,3.817-34.443,10.448-44.214,32.217-47.472,79.376-91.404,111.277-140.128,4.993-8.015,3.861-18.663-6.919-19.309-35.835,11.353-56.472-.026-77.363,36.398-26.25,45.765-38.927,91.507-73.137,135.7-35.77,46.208-105.33,102.737-153.938,38.734-14.368,23.331-27.821,46.957-51.875,61.631-44.936,27.412-83.485,7.638-96.172-41.378-3.64-14.065-1.574-34.852-15.849-42.307-7.358.693-31.969,39.016-39.842,47.411-19.806,21.121-50.148,43.775-80.556,31.776-7.027-2.773-18.4-13.258-25.471-12.228-13.496,1.967-27.751,26.711-39.073,36.092-27.689,22.942-63.414,25.649-80.424-10.704-5.403-11.546-5.502-22.534-8.75-33.827-2.053-7.138-5.426-16.924-14.325-10.28-5.511,4.116-19.499,27.094-26.19,34.626-19.13,21.532-56.151,57.327-83.231,26.39-30.129-34.42.079-124.332,21.007-159.563,21.631-36.415,65.559-77.14,111.425-62.051,4.531,1.491,15.665,8.368,17.323,8.285,9.891-.498,13.958-15.644,20.563-21.992,14.425-13.863,35.33-9.482,33.103,12.671-2.01,19.991-17.761,57.443-22.907,80.647-6.494,29.276-15.708,74.387-10.218,103.524,4.273,22.678,23.962,1.594,32.57-8.189,34.657-39.389,40.488-107.529,63.468-155.504,22.048-46.029,67.128-92.96,122.891-85.611,13.987,1.843,27.72,17.557,38.614,3.798,38.175-180.985,55.242-249.27,120.804-324.081,24.794-28.292,92.224-77.389,123.404-32.042,31.749,46.174-25.613,124.482-67.913,144.288-28.909,13.536-46.443-15.043-18.763-37.003,14.982-11.885,23.953-12.197,37.174-29.737,11.111-14.74,19.511-31.55,17.4-50.529ZM1810.789,1516.185c-12.386,2.422-28.077,22.179-34.306,32.717-5.014,8.481-18.962,32.773-5.796,38.979,21.886-7.278,49.631-31.157,52.605-55.031,1.305-10.48.102-19.129-12.503-16.664ZM1545.263,1530.439c-58.912,3.266-99.158,112.342-92.361,162.228,2.43,17.837,5.969,21.987,22.845,13.749,36.13-17.636,89.672-120.115,88.273-159.26-.487-13.616-4.541-17.505-18.757-16.717ZM1194.863,1746.907c4.116,4.709,30.64-27.314,33.238-30.611,15.957-20.247,31.711-46.697,44.156-69.387,5.525-10.074,23.489-37.939,18.903-47.939-4.531-9.881-11.335-7.857-19.208-5.059-47.864,17.013-78.125,106-77.089,152.996Z" fill="#fff"/>
    <path d="M1837.286,709.603c12.505,12.776,3.766,32.981-5.425,44.863-25.467,32.926-48.967,41.431-88.24,51.158-30.014,7.433-68.98,3.361-79.212,38.392-21.674,99.113-56.85,196.415-74.681,296.349-3.904,21.879-11.478,70.033-3.703,89.599,10.675,26.863,39.732,23.836,27.625,48.05-10.14,20.279-53.877,4.237-68.268-23.634-23.981-46.444,6.672-159.126,19.53-209.786,14.952-58.909,39.217-121.575,51.962-179.175,2.748-12.418,5.998-32.61-9.676-37.914-6.438-2.179-50.833,5.762-61.067,7.734-22.614,4.358-56.502,11.626-76.055,23.302-17.802,10.631-27.261,32.724-52.35,34.875-13.747,1.179-29.503-4.491-28.264-20.605,1.716-22.318,38.03-17.721,43.018-41.718,5.808-27.943-31.118-19.889-46.935-12.465-35.819,16.812-96.599,99.561-73.958,138.323,7.527,12.886,18.96,8.926,32.252,6.501,13.663-2.493,41.407-15.602,51.437-15.168,11.446.495,17.313,10.045,14.971,20.681-2.215,10.062-26.988,22.397-35.883,29.061-44.366,33.239-81.794,69.078-108.751,118.339-19.362,35.38-52.425,127.61,3.086,145.002,59.444,18.624,124.115-57.483,150.402-103.049,8.255-14.309,24.71-61.009,38.065-65.327,12.842-4.152,18.217,4.449,18.558,16.312,1.437,49.937-15.388,125.243-40.402,168.632-66.052,114.573-177.822,146.247-327.303,164.984-33.529,4.203-33.449,9.135-43.896,39.236-7.832,22.567-13.934,47.929-20.079,71.158-9.308,35.189-28.858,99.01-31.775,132.621-.373,4.294-.272,13.08,3.651,14.86,13.133,5.957,47.56-.132,61.946-4.184,12.397-3.492,60.309-28.12,58.693,2.206-1.575,29.562-63.52,37.445-85.599,39.824-13.34,1.438-39.838-2.913-48.51,8.266-13.026,16.793-32.239,115.983-40.253,144.249-19.546,68.941-55.224,207.571-142.411,214.432-110.648,8.707-116.222-161.588-48.595-216.854,12.903-10.544,37.564-21.181,52.214-8.246,18.883,16.673-16.702,35.306-25.75,44.841-24.635,25.963-33.707,88.627-13.826,118.958,14.662,22.368,40.227,21.489,60.315,6.593,48.923-36.277,90.771-202.303,101.412-263.54,1.495-8.605,7.218-33.206-.167-38.392-13.655-9.589-54.481,11.106-67.232,19.663-5.495,3.687-24.641,22.047-26.321,22.465-15.579,3.873-9.433-21.922-5.655-30.104,9.875-21.382,34.53-37.376,56.223-45.159,15.314-5.494,38.199-5.972,49.686-11.145,6.117-2.755,10.727-10.651,14.373-16.041,13.641-46.664,24.778-94.039,37.441-140.979,6.456-23.93,16.775-46.935,17.993-71.707.512-10.416-7.855-19.124-18.281-18.851-50.083,1.311-189.301,23.995-198.633,26.789-35.412,10.6-77.385,30.913-94.379,65.804-9.024,18.527-13.089,49.171,9.09,59.989,10.595,5.168,11.843,1.099,21.371.782,32.03-1.068,26.642,35.118,1.043,43.717-38.333,12.877-79.548-23.734-84.633-61.342-11.787-87.174,75.383-133.831,147.484-149.523,153.658-33.442,479.621-17.858,582.142-160.869,3.948-5.507,25.858-37.972,21.502-42.345-1.574-.043-3.205-.226-4.75.296-2.957,1-26.472,25.248-32.793,30.065-99.859,76.096-201.816,17.681-167.783-108.958,10.586-39.39,34.498-78.768,60.321-109.993,7.416-8.967,46.375-46.614,47.33-52.12,1.792-10.326-16.204-13.074-23.869-19.936-43.264-38.729-3.628-119.679,27.234-155.014,33.894-38.806,107.832-80.032,149.06-29.365,3.068,3.77,4.668,10.805,6.595,12.666,10.294,9.945,36.728-3.859,49.757-7.024,77.855-18.917,225.296-7.708,274.739-69.462,5.924-7.398,9.969-20.885,19.731-24.87,7.389-3.016,17.389-2.622,23.111,3.225Z" fill="#fff"/>
    <path d="M2191.337,1317.123c-42.895,20.274-80.917,46.86-125.222,64.364-34.658,13.693-77.067,27.665-113.642,34.38-14.822,2.722-40.628,12.134-43.036-8.486-5.439-46.594,1.168-112.113,2.149-160.12.818-40.012-1.346-82.011,1.976-121.697,3.009-35.948,30.724-39.023,60.753-44.683,56.982-10.739,123.842-12.867,181.245-4.731,12.722,1.803,47.808,6.972,55.43,16.513,8.723,10.919,8.001,73.257,8.651,89.721,1.924,48.749,6.644,112.188,2.19,160.16-2.639,28.417-30.495,20.487-30.495,14.113v-39.535ZM1945.975,1185.341v56.768l221.028-125.68c-26.384-2.748-53.078-6.6-79.639-5.646l-141.389,74.558ZM1948.003,1320.164v49.672c3.688.325,6.431-2.168,9.444-3.737,55.48-28.907,109.626-66.189,165.61-95.955,22.391-11.905,45.589-22.499,68.448-33.404-4.664-14.299-.299-29.984-2.193-44.34-.37-2.803,1.113-3.529-2.985-2.957l-238.325,130.721Z" fill="#fff"/>
    <path d="M2215.107,1967.358c-5.338,5.238-42.57,13.694-52.138,15.792-65.348,14.324-143.347,18.87-208.903,4.052-19.259-4.353-42.456-9.186-44.694-32.356-1.128-11.677-1.404-43.419.582-54.362,1.936-10.669,15.115-22.731,26.357-21.394,16.948,2.016,10.209,15.772,11.687,27.034.311,2.368-.838,4.048,2.974,2.947,10.444-3.014,33.763-21.136,45.653-27.357,38.508-20.148,75.256-23.217,116.482-33.568,19.61-4.924,82.505-27.039,97.45-24.122,5.714,1.115,10.575,7.537,11.303,13.023,2.547,19.206,1.99,104.137-2.691,121.209-.645,2.353-2.52,7.589-4.062,9.103ZM2191.337,1911.155v-54.74l-180.472,99.324c19,2.03,38.677,3.208,57.876,2.131,44.302-2.485,67.347-22.231,105.648-40.345,5.35-2.53,11.27-4.701,16.949-6.369Z" fill="#fff"/>
    <path d="M2199.902,1016.61c11.613,2.506,45.747,16.259,47.897,28.315,1.355,7.593-5.138,16.152-12.966,16.666-7.973.523-37.888-10.973-49.196-13.484-69.97-15.536-149.709-10.5-219.406,4.417-14.835,3.175-69.135,20.998-79.073,16.237-2.729-1.307-5.852-7.218-6.053-10.279-1.095-16.718,33.765-25.836,45.699-31.186,6.341-48.485,26.555-84.773,73.419-102.98,60.222-23.397,133.055-22.642,176.967,30.866,15.421,18.792,19.756,37.703,22.712,61.428ZM2166.818,1012.858c6.953-27.393-20.944-53.359-43.035-65.101-26.936-14.318-61.231-16.851-90.615-9.74-.754,4.458.374,4.043,3.967,5.047,9.61,2.686,24.861,1.534,36.663,3.984,19.961,4.145,52.447,20.274,63.707,37.676,5.121,7.914,4.479,17.424,9.148,25.32l20.166,2.815Z" fill="#fff"/>
    <path d="M1929.299,2049.474c-11.613-2.506-45.747-16.259-47.897-28.315-1.355-7.593,5.138-16.152,12.966-16.666,7.973-.523,37.888,10.973,49.196,13.484,69.804,15.5,149.872,10.557,219.406-4.417,14.99-3.228,68.858-21.13,79.073-16.237,2.729,1.307,5.852,7.218,6.053,10.279,1.095,16.718-33.765,25.836-45.699,31.186-6.193,48.242-26.857,84.89-73.419,102.98-60.222,23.397-133.055,22.642-176.967-30.866-15.421-18.792-19.756-37.703-22.712-61.428ZM2096.023,2124.063c-1.457-1.553-34.857-3.787-42.255-5.419-19.413-4.282-51.104-20.333-62.071-37.283-5.121-7.914-4.479-17.424-9.148-25.32l-20.166-2.815c-6.878,28.107,21.541,54.142,44.34,65.824,23.929,12.261,55.332,15.683,81.644,10.445,1.89-.376,11.395-1.449,7.656-5.433Z" fill="#fff"/>
    <path d="M1060.733,934.475c3.929-1.278,6.51,1.901,7.815,5.186,4.435,11.166,5.154,31.351,9.549,44.785,6.222,19.017,16.646,35.169,33.954,45.562,4.254,2.554,15.083,4.834,15.531,9.786.635,7.014-13.237,9.543-18.205,12.279-24.783,13.65-30.559,43.844-33.39,69.979-1.421,13.117.243,34.703-3.097,45.935-1.108,3.727-5.617,4.758-8.466,2.397-2.873-2.381-4.984-32.459-6.052-39-4.172-25.558-8.639-67.966-37.184-76.788-6.71-2.074-22.835-.993-17.613-11.563,1.014-2.052,19.061-9.473,23.838-13.276,15.534-12.37,24.393-46.658,28.136-65.956,1.673-8.628,1.611-17.999,3.044-26.11.261-1.477.525-2.691,2.14-3.216Z" fill="#fff"/>
    <path d="M840.022,1192.508c-2.106-2.067-6.611-4.893-9.432-5.93-6.991-2.571-17.831,1.972-15.963-8.599.607-3.436,11.497-12.148,14.551-16.252,9.925-13.334,14.385-31.18,18.061-47.123,1.264-5.479,5.998-35.289,7.361-36.907,8.262-9.805,10.023,22.039,10.85,26.051,5.084,24.664,12.321,48.554,34.88,62.283,3.997,2.433,10.074,1.49,9.05,8.149-.675,4.387-8.453,6.608-11.722,9.282-20.47,16.744-24.068,48.192-26.435,73.187-.655,6.917,2.593,28.426-9.606,16.959-2.885-22.004-5.156-64.967-21.596-81.099Z" fill="#fff"/>
    <path d="M1804.792,966.625c-.381.655-10.361,6.303-12.546,8.51-3.944,3.983-8.062,11.41-10.201,16.621-2.516,6.132-4.963,21.662-7.548,25.327-1.628,2.308-4.771,2.229-6.946.771-8.652-5.796-3.176-34.77-24.169-43.584-4.212-1.768-11.274-.274-11.257-6.749.014-5.471,8.145-7.549,12.233-10.892,6.634-5.426,10.448-13.095,13.473-21.012,2.455-6.423,4.254-20.022,6.344-23.984,2.063-3.911,6.64-1.309,8.222,1.706,5.712,10.886,3.548,22.773,14.735,33.791,4.941,4.867,22.346,11.437,17.659,19.494Z" fill="#fff"/>
  </g>
  <g>
    <path d="M1305.82,2121.718v-81.12l48.924-8.976v13.723l-35.65,6.54v17.983l33.13-6.079v13.667l-33.13,6.079v22.023l36.857-6.762v13.723l-50.131,9.199Z" fill="#fff"/>
    <path d="M1363.85,2084.621l12.999-3.935c1.462,10.099,6.252,14.403,14.37,12.914,4.022-.738,7.186-2.381,9.489-4.922,2.303-2.543,3.455-5.382,3.455-8.517,0-1.843-.404-3.335-1.207-4.479-.805-1.143-2.03-1.978-3.676-2.507-1.646-.527-5.631-1.186-11.956-1.978-5.669-.691-9.818-1.807-12.451-3.351s-4.726-3.823-6.279-6.836c-1.555-3.015-2.332-6.419-2.332-10.216,0-4.422.996-8.587,2.988-12.492,1.993-3.902,4.746-7.081,8.256-9.53,3.51-2.45,7.843-4.149,12.999-5.095,7.75-1.423,13.803-.41,18.155,3.032,4.351,3.445,6.654,9.091,6.911,16.937l-13.327,3.164c-.586-4.245-1.848-7.057-3.786-8.434-1.937-1.379-4.697-1.738-8.282-1.081-3.583.657-6.345,1.917-8.282,3.779-1.937,1.864-2.907,3.918-2.907,6.161,0,2.207.881,3.903,2.639,5.087,1.76,1.184,5.803,2.103,12.126,2.749,6.689.729,11.525,1.899,14.503,3.51,2.977,1.612,5.253,3.978,6.823,7.102,1.573,3.123,2.359,7.117,2.359,11.986,0,7.044-2.15,13.359-6.446,18.941-4.295,5.584-11.014,9.212-20.156,10.89-16.163,2.967-25.156-4.661-26.984-22.881Z" fill="#fff"/>
    <path d="M1443.488,2096.458v-67.396l-19.582,3.592v-13.723l52.381-9.612v13.724l-19.525,3.581v67.396l-13.274,2.437Z" fill="#fff"/>
    <path d="M1474.642,2090.741v-15.546l12.615-2.315v15.548l-12.615,2.314Z" fill="#fff"/>
    <path d="M1565.853,2059.563v14.443l-44.316,8.131c.474-5.543,1.927-10.996,4.36-16.363,2.431-5.368,7.157-12.694,14.177-21.979,5.558-7.397,8.977-12.337,10.257-14.821,1.901-3.63,2.853-7.104,2.853-10.421,0-3.537-.788-6.067-2.358-7.583-1.574-1.518-3.639-2.042-6.199-1.573-5.595,1.026-8.613,5.806-9.05,14.332l-12.562.756c.77-8.405,3.045-14.89,6.829-19.457,3.786-4.568,8.822-7.429,15.111-8.582,6.911-1.269,12.123.043,15.633,3.932s5.265,8.765,5.265,14.625c0,3.317-.449,6.616-1.344,9.894-.897,3.279-2.277,6.665-4.14,10.16-1.866,3.492-4.975,8.089-9.326,13.79-4.058,5.352-6.627,8.865-7.705,10.536-1.079,1.672-1.948,3.269-2.605,4.79l25.12-4.609Z" fill="#fff"/>
    <path d="M1595.746,1987.125c6.396-1.174,11.572.947,15.52,6.358,3.949,5.415,5.924,15.788,5.924,31.124s-1.975,26.379-5.924,33.241c-3.949,6.864-9.105,10.878-15.467,12.045-6.399,1.174-11.573-.919-15.52-6.278-3.95-5.356-5.924-15.795-5.924-31.314,0-15.224,1.974-26.268,5.924-33.133,3.947-6.861,9.105-10.876,15.467-12.044ZM1595.772,2000.013c-2.494.458-4.485,2.482-5.971,6.071s-2.229,11.575-2.229,23.957.742,20.087,2.229,23.114c1.486,3.024,3.477,4.309,5.971,3.85,2.531-.465,4.53-2.49,5.998-6.076,1.467-3.584,2.201-11.552,2.201-23.898s-.735-20.096-2.201-23.145c-1.468-3.047-3.468-4.339-5.998-3.874Z" fill="#fff"/>
    <path d="M1668.31,2040.765v14.441l-44.318,8.131c.475-5.541,1.928-10.995,4.36-16.363,2.431-5.367,7.157-12.692,14.177-21.979,5.558-7.397,8.977-12.337,10.257-14.819,1.901-3.63,2.853-7.104,2.853-10.421,0-3.537-.786-6.067-2.358-7.583-1.574-1.518-3.639-2.042-6.199-1.573-5.593,1.026-8.611,5.806-9.048,14.33l-12.562.758c.768-8.405,3.044-14.89,6.829-19.459,3.785-4.567,8.822-7.429,15.109-8.582,6.911-1.268,12.123.043,15.634,3.934,3.509,3.89,5.265,8.763,5.265,14.623,0,3.319-.449,6.618-1.345,9.896-.897,3.278-2.277,6.665-4.14,10.158-1.866,3.493-4.974,8.09-9.325,13.79-4.06,5.353-6.628,8.865-7.706,10.538-1.079,1.672-1.946,3.269-2.605,4.79l25.122-4.609Z" fill="#fff"/>
    <path d="M1676.371,2032.258l12.232-4.07c.329,3.758,1.374,6.486,3.135,8.182,1.761,1.697,3.832,2.326,6.215,1.889,2.604-.478,4.804-2.08,6.601-4.808,1.796-2.727,2.695-6.212,2.695-10.454,0-3.947-.862-6.887-2.587-8.821s-3.817-2.677-6.276-2.226c-1.614.298-3.542,1.038-5.78,2.224l1.369-12.923c3.272-.527,5.863-1.884,7.775-4.075,1.873-2.183,2.812-4.949,2.812-8.297,0-2.795-.679-4.858-2.037-6.191-1.357-1.333-3.099-1.804-5.227-1.413-2.13.39-3.972,1.643-5.532,3.754-1.559,2.112-2.487,4.984-2.78,8.617l-11.682-.291c1.208-7.638,3.571-13.456,7.085-17.458s7.945-6.493,13.292-7.474c6.004-1.102,10.773.179,14.306,3.84,3.534,3.662,5.302,8.107,5.302,13.337,0,3.536-.796,6.868-2.387,9.996-1.59,3.129-3.976,6.053-7.157,8.772,3.692.319,6.698,1.963,9.023,4.93,2.32,2.97,3.483,6.997,3.483,12.088,0,7.415-2.188,13.951-6.563,19.601-4.375,5.655-9.583,9.035-15.624,10.143-5.784,1.063-10.68-.082-14.69-3.431-4.01-3.348-6.343-8.497-7.002-15.44Z" fill="#fff"/>
  </g>
  <path d="M1499.994,2534.924l-6.489-9.873c-.34-.516-35.424-52.853-119.205-104.505-49.224-30.347-105.385-54.532-166.927-71.88-77.029-21.715-162.755-32.725-254.8-32.725h-145.183v-7.773c0-73.989-60.193-134.182-134.182-134.182h-7.773v-352.52c-7.741-8.696-35.353-41.091-63.28-90.638-29.781-52.839-65.282-135.778-65.282-230.829s35.501-177.99,65.282-230.829c27.927-49.548,55.539-81.942,63.28-90.638v-352.52h7.773c73.989,0,134.182-60.194,134.182-134.182v-7.773h145.183c92.045,0,177.771-11.01,254.8-32.725,61.541-17.348,117.702-41.532,166.927-71.88,83.781-51.653,118.865-103.989,119.21-104.512l6.505-9.866,6.489,9.874c.34.515,35.424,52.851,119.205,104.504,49.221,30.347,105.384,54.531,166.924,71.88,77.025,21.715,162.75,32.725,254.794,32.725h145.183v7.773c0,73.988,60.193,134.182,134.182,134.182h7.773v352.52c7.741,8.695,35.354,41.09,63.28,90.638,29.782,52.839,65.284,135.778,65.284,230.829s-35.501,177.99-65.284,230.829c-27.926,49.546-55.539,81.941-63.28,90.638v352.52h-7.773c-73.989,0-134.182,60.193-134.182,134.182v7.773h-145.183c-92.043,0-177.768,11.01-254.794,32.725-61.54,17.348-117.702,41.533-166.924,71.88-83.781,51.652-118.865,103.989-119.21,104.512l-6.505,9.865ZM822.738,2300.395h129.836c93.765,0,181.158,11.276,259.752,33.516,63.019,17.831,120.563,42.714,171.032,73.957,66.633,41.249,102.894,82.219,116.647,99.797,13.753-17.578,50.014-58.548,116.646-99.797,50.469-31.243,108.012-56.126,171.03-73.957,78.592-22.24,165.984-33.516,259.746-33.516h129.836c3.923-76.392,65.364-137.834,141.757-141.757v-343.231l2.089-2.241c.317-.34,32.087-34.68,63.409-90.354,28.771-51.136,63.066-131.301,63.066-222.813s-34.294-171.678-63.066-222.814c-31.322-55.673-63.092-90.013-63.409-90.353l-2.088-2.239-.002-3.063v-340.171c-76.392-3.923-137.834-65.364-141.757-141.756h-129.836c-93.762,0-181.154-11.276-259.746-33.515-63.019-17.833-120.561-42.716-171.03-73.958-66.632-41.249-102.892-82.219-116.646-99.795-13.753,17.576-50.014,58.546-116.647,99.795-50.469,31.243-108.013,56.125-171.032,73.958-78.594,22.238-165.987,33.515-259.752,33.515h-129.836c-3.923,76.392-65.364,137.833-141.757,141.756v343.232l-2.089,2.242c-.317.34-32.087,34.68-63.409,90.353-28.77,51.135-63.064,131.301-63.064,222.814s34.294,171.677,63.064,222.813c31.322,55.674,63.092,90.014,63.409,90.354l2.088,2.238.002,3.064v340.171c76.392,3.923,137.834,65.364,141.757,141.757Z" fill="#fff"/>
  <path d="M2121.919,838.666c-.762-2.716-2.136-5.074-4.123-7.074-13.301-16.984-36.628-22.291-57.123-23.206-19.012-.849-38.291,1.472-56.769,5.908-25.804,6.195-50.25,17.599-71.758,33.094.058-.071.119-.139.177-.209,1.599-1.951,3.143-3.952,4.632-5.988.38-.52.774-1.037,1.128-1.574.139-.211.234-.358.296-.457,1.004-1.317,2.039-2.611,3.022-3.945,5.832-7.912,10.046-17.242,12.237-26.831,1.297-5.675,1.859-11.456,1.966-17.262.045-2.439.009-4.886.12-7.321.106-2.332.133-4.589-.605-6.874-.767-2.375-1.859-4.693-2.839-6.97-1.274-2.959-5.589-5.94-8.623-6.631-3.226-.735-6.331-.566-9.395.727-6.206,2.619-10.757,10.208-8.354,17.022.7,1.984,1.219,3.996,2.038,5.935.602,1.427,1.431,2.694,2.189,4.022.427,1.325.785,2.659,1.058,4.024.456,4.572.39,9.154-.121,13.718-.987,6.281-2.554,12.428-4.43,18.506-.464,1.503-1.076,2.975-1.509,4.484-.005.018-.004.019-.009.036-.128.253-.246.513-.371.767-.471.962-.957,1.917-1.458,2.865-1.571,2.972-3.294,5.859-5.119,8.681-5.421,8.387-11.739,16.082-18.217,23.65.525-2.514.983-5.045,1.307-7.61,1.541-12.225-.372-24.539-5.613-35.682-5.071-10.781-14.014-18.922-24.095-24.943-1.114-.665-2.257-1.258-3.439-1.794-2.285-1.035-4.813-2.405-7.318-2.917-3.783-.772-7.933-1.251-11.831-1.105-3.975.148-8.2.733-12.027,1.945-2.586.819-5.121,1.945-7.576,3.07-2.553,1.17-4.715,3.003-6.846,4.817-3.244,2.761-5.523,8.703-5.336,12.882.184,4.114,1.382,7.764,3.912,11.039,2.326,3.01,5.649,5.66,9.464,6.529,1.614.217,3.229.434,4.843.651,3.289-.01,6.354-.839,9.195-2.487.325-.152.653-.298.984-.437-1.463.617-2.925,1.234-4.388,1.851,1.992-.837,3.915-1.762,5.849-2.667,1.414-.48,2.853-.861,4.314-1.162,2.021-.077,4.032.029,6.048-.133,1.792-.144,3.605-.128,5.407-.012,1.467.342,2.914.789,4.328,1.314,1.579.744,3.114,1.589,4.561,2.561,1.795,1.561,3.425,3.268,4.973,5.091.026.036.052.071.078.107.466.657.916,1.326,1.347,2.006.909,1.433,1.741,2.913,2.495,4.433.281.566.539,1.142.801,1.716.102.263.206.526.305.791.603,1.616,1.13,3.26,1.585,4.925.426,1.56.779,3.137,1.069,4.728.109.599.199,1.201.295,1.802.046.464.105.927.148,1.391.316,3.349.476,6.782.142,10.135-.03.301-.13,1.129-.149,1.334-.096.662-.196,1.324-.311,1.983-.329,1.884-.729,3.755-1.188,5.611-1.127,4.563-2.644,8.987-4.413,13.311-.88,1.121-1.763,2.239-2.625,3.374-.506.666-.212,1.402.348,1.824-.236.503-.452,1.015-.694,1.516-1.796,3.702-3.718,7.352-5.713,10.951-1.051,1.896-2.13,3.777-3.228,5.646-1.075,1.83-1.732,3.901-2.521,5.869-.868,2.167,2.108,3.241,3.532,2.056,1.123-.934,2.318-1.826,3.372-2.838,1.127-1.082,2.08-2.409,3.066-3.621,1.943-2.388,3.842-4.812,5.693-7.273,2.801-3.725,5.397-7.631,7.769-11.654,8.942-10.002,19.079-18.943,30.044-26.684,9.061-6.396,18.643-11.954,28.545-16.937,2.445-1.23,4.914-2.414,7.405-3.549,1.248-.568,2.501-1.125,3.759-1.669.176-.076.351-.151.527-.227.713-.182,1.431-.596,2.11-.871,5.118-2.071,10.319-3.938,15.585-5.595,11.474-3.609,23.222-6.376,35.127-8.098,14.811-1.872,29.951-1.998,44.779-.212,7.17,1.106,14.245,2.808,21.018,5.419,3.667,1.665,7.168,3.641,10.436,5.998,2.238,1.856,4.346,3.834,6.256,6.026,1.31,1.816,2.93,3.323,4.894,4.485,1.277.539,2.553,1.077,3.83,1.616,4.828,1.562,10.103.123,13.976-2.87,3.476-2.686,5.447-6.108,6.032-10.459.477-2.131.382-4.262-.286-6.393Z" fill="#fff"/>
  <path d="M1191.881,1326.281c-1.965.666-3.953,1.248-5.955,1.754,2.022-.936,4.073-1.788,6.211-2.374,1.976-.541.864-3.549-1.123-2.664-4.798,2.136-10.474,2.584-15.654,3.267-4.88.644-9.717,1.484-14.62,1.988-3.082.317-6.17.549-9.261.742-3.383-.656-6.732-1.525-10.021-2.628-1.827-.613-3.638-1.285-5.417-2.026-.16-.07-.385-.167-.45-.197-.597-.276-1.199-.541-1.794-.822-.994-.471-1.979-.962-2.954-1.472-3.503-1.834-6.868-3.929-10.07-6.248-.4-.29-.794-.588-1.193-.879-.351-.256-.447-.288-.421-.231-.544-.501-1.157-1.191-1.345-1.37-1.411-1.334-2.775-2.718-4.092-4.146-2.529-2.743-5.121-5.433-7.48-8.331-.169-.207-.334-.417-.501-.627-.005-.007-.008-.01-.013-.017-.637-.857-1.258-1.725-1.862-2.605-1.215-1.769-2.364-3.582-3.445-5.436-1.858-3.189-3.539-6.499-5.049-9.872-2.564-6.489-4.368-13.341-5.498-20.231-.384-3.68-.438-7.365-.09-11.051.184-1.224.309-2.45.155-3.668-.259-2.044-.431-4.082-1.029-6.056-1.405-4.642-4.91-8.339-9.642-9.642-4.597-1.266-10.137-.028-13.431,3.55-2.142,2.327-3.547,4.515-4.741,7.344-1.319,3.124-1.555,6.606-1.764,9.983-.195,3.144-.084,6.304.271,9.433.479,4.225,1.015,8.553,2.132,12.673,1.08,3.983,2.902,7.869,4.605,11.605,4.796,10.515,11.873,20.075,20.302,27.965,4.428,4.145,9.276,8.227,14.583,11.179,3.228,1.795,6.583,3.428,9.98,4.948-3.92-.177-7.838-.417-11.75-.774-5.243-.479-10.485-.835-15.711-1.496-.316-.04-.632-.081-.948-.123-.369-.054-.843-.122-.987-.143-1.181-.171-2.361-.352-3.539-.541-2.617-.421-5.226-.888-7.827-1.394-37.858-7.364-77.583-19.974-115.846-7.88-10.066,3.181-19.016,8-27.054,14.829-4.091,3.476-7.458,7.583-10.597,11.928-1.196,1.656-2.303,3.389-3.249,5.198-.474.907-.92,1.824-1.346,2.754-.177.387-.356.775-.529,1.163-1.542,2.66-2.319,5.528-2.328,8.607.066,1.688.304,3.343.714,4.966,1.369,5.637,6.218,10.211,11.728,11.728,5.862,1.614,12.004-.142,16.338-4.318,4.196-4.044,4.885-9.667,6.679-14.894,1.234-2.563,2.682-5.004,4.325-7.328,3.039-3.675,6.492-7.022,10.208-10.004,1.895-1.385,3.852-2.692,5.882-3.862,1.315-.758,2.672-1.449,4.037-2.112.642-.312,1.288-.616,1.938-.911.195-.088.39-.174.586-.261,2.893-1.15,5.821-2.149,8.83-2.951,1.469-.392,2.947-.744,4.435-1.056.694-.146,1.39-.282,2.088-.409.297-.054.597-.102.894-.157,4-.286,7.998-.417,12.01-.328,2.057.045,4.109.124,6.155.339.964.101,1.927.211,2.889.329.348.043.697.087,1.045.133.384.057.901.133,1.012.149,8.431,1.247,16.765,3.066,25.061,4.998,8.338,1.942,16.639,4.064,25.052,5.668,8.687,1.656,17.455,2.929,26.262,3.733,16.964,1.548,34.034.334,50.848-2.205,7.289-1.101,14.381-2.948,21.388-5.159,11.522-1.134,22.645-4.15,33.105-9.392,1.465-.734.445-3.195-1.123-2.664Z" fill="#fff"/>
  <path d="M776.721,1352.648c-6.481-1.953-13.103-1.311-19.74-.546-6.49.748-12.979,1.756-19.314,3.375-11.95,3.055-23.646,7.964-34.331,14.107-9.888,5.684-18.748,13.116-26.502,21.603,1.931-2.739,3.871-5.459,5.801-8.164,8.345-11.693,17.225-23.265,24.125-35.902,7.019-12.853,12.775-26.829,15.366-41.295,1.522-8.497,2.114-17.281,1.284-25.885-.443-4.587-1.102-9.196-2.208-13.675-.481-1.949-1.048-3.876-1.699-5.775-.549-1.6-1.125-3.279-1.967-4.747-1.324-2.309-3.474-3.815-5.678-5.175-5.711-3.525-14.498-.312-15.951,6.489-.335,1.57-.78,3.129-.78,4.755,0,2.028.447,3.363,1.104,5.094.634,1.67,1.201,3.366,1.702,5.081.854,2.925,1.49,5.903,1.973,8.909.856,7.641.577,15.269-.324,22.896-1.546,10.425-4.525,20.541-8.517,30.29-.021.051-.047.121-.076.199-.215.651-.558,1.293-.835,1.92-.473,1.073-.941,2.147-1.405,3.225-1.205,2.802-2.47,5.578-3.78,8.332-2.316,4.871-4.775,9.674-7.295,14.443-10.409,19.696-21.884,38.746-29.221,59.888-4.026,11.6-6.681,23.705-7.066,36.004-.05,1.605,2.586,2.033,2.863.388.175-1.041.401-2.064.609-3.093.445-.105.854-.391,1.05-.948,3.554-10.115,8.389-19.418,14.628-28.137,6.057-8.464,13.341-16.116,21.355-22.752.896-.742,1.803-1.469,2.717-2.187.179-.136.693-.533.829-.635.647-.487,1.299-.967,1.955-1.441,2.059-1.487,4.165-2.905,6.304-4.273,4.738-3.027,9.707-5.648,14.664-8.292,2.54-1.355,5.125-2.625,7.749-3.81.461-.208.925-.409,1.387-.614.246-.08.524-.231.724-.313,1.325-.543,2.658-1.064,4-1.563,5.382-2.001,10.895-3.649,16.49-4.935,3.126-.719,6.279-1.357,9.441-1.894.764-.13,1.53-.253,2.296-.37.217-.033.434-.064.651-.096,1.409-.169,2.817-.338,4.231-.469,3.188-.296,6.387-.475,9.588-.534,1.656-.03,3.318.032,4.973-.044,2.344-.107,4.56-.649,6.829-1.166,3.882-.884,7.134-5.141,6.955-9.135-.191-4.251-2.821-7.889-6.955-9.135Z" fill="#fff"/>
  <g>
    <path d="M1079.879,827.858c2.064-.764,1.255-.524.663-.288-.064.028-.128.053-.192.08-.158.068-.314.139-.471.208Z" fill="#fff"/>
    <path d="M1286.493,758.851c-7.717,2.383-15.291,5.191-23.046,7.473-7.546,2.221-15.17,4.174-22.838,5.925-15.782,3.604-31.709,6.61-47.666,9.331-15.859,2.703-31.658,5.759-47.436,8.908-14.512,2.897-29.053,5.386-43.435,8.931-28.97,7.14-57.932,17.297-83.417,33.037-24.836,15.338-46.473,36.365-60.063,62.403-6.604,12.653-11.831,26.325-14.328,40.414-1.382,7.8-2.329,15.753-2.311,23.685.018,7.866,1.144,15.819,2.914,23.476.668,2.889,1.384,5.687,2.91,8.309,1.361,2.339,3.499,4.615,5.362,6.675,1.773,1.959,4.777,3.56,7.3,4.254,3.603.992,7.371.601,10.771-.834,2.719-1.148,4.812-2.758,6.617-5.094,2.413-3.123,3.106-6.083,3.552-10.023.085-.749.176-1.497.274-2.244-.065.48-.129.959-.193,1.439.367-3.045.458-5.663-.396-9.139-.301-1.226-.606-2.449-.873-3.684-.373-1.728-.678-3.467-.954-5.212-.962-8.65-1.096-17.313-.151-25.97,1.496-9.495,4.13-18.761,7.706-27.682,4.902-11.108,11.156-21.707,18.436-31.423,7.808-9.812,16.774-18.533,26.604-26.312,13.177-9.989,27.545-18.408,42.595-25.237,1.808-.821,3.629-1.612,5.451-2.401-.078.029-.149.055-.235.087.238-.088.471-.194.706-.294.011-.005.022-.009.033-.014.049-.021.104-.043.16-.066.206-.089.414-.173.62-.258,1.115-.462,2.232-.917,3.352-1.366,4.077-1.635,8.185-3.191,12.318-4.676,8.067-2.899,16.228-5.533,24.448-7.96,8.395-2.479,16.85-4.756,25.334-6.91,9.023-2.29,18.213-4.017,27.325-5.919,18.527-3.868,36.913-8.315,55.126-13.476,10.104-2.863,20.092-6.31,29.911-10.029,5.055-1.914,10.173-3.867,15.193-6.028-7.783,6.037-15.276,12.435-22.819,18.769-4.728,3.97-9.279,8.151-13.634,12.528-4.727,4.751-8.801,10.367-12.786,15.732-15.22,20.492-25.623,45.01-30.378,70.067-1.483,7.813-2.569,15.727-3.271,23.648-.305,3.437-.685,6.929-.447,10.376.12,1.735.262,3.468.427,5.198.168,1.756.27,3.581.649,5.297.384,1.739,1.231,3.53,2.062,5.136,4.012,7.752,17.151,8.153,21.043,0,.738-1.547,1.537-3.182,1.966-4.842.462-1.784.498-3.747.692-5.591.193-1.838.414-3.672.656-5.504-.164,1.219-.328,2.438-.491,3.658,1.021-7.579,1.263-15.232,2.146-22.835,1.373-9.573,3.287-19.088,5.868-28.408,2.659-9.596,5.398-19.175,8.965-28.481.434-1.133.878-2.263,1.332-3.388.351-.87,2.146-4.826.48-1.202,1.417-3.082,2.618-6.261,3.895-9.403.122-.285.243-.57.367-.854.49-1.129.99-2.255,1.499-3.376,1.1-2.421,2.245-4.822,3.435-7.201,4.433-8.862,8.905-17.76,14.086-26.214,5.876-9.586,13.81-17.962,22.136-25.455.457-.411.508-.978.323-1.472,2.103-1.059,4.179-2.163,6.199-3.351,2.589-1.522.897-5.847-2.078-4.928Z" fill="#fff"/>
  </g>
  <g>
    <path d="M910.596,952.656c.151-.059.304-.113.454-.173.132-.058.262-.119.393-.178-.286.106-.745.288-1.037.423.009-.003.018-.007.028-.01.055-.022.106-.042.162-.062Z" fill="#fff"/>
    <path d="M965.831,879.951c-2.908-7.443-6.515-13.88-11.907-19.854-4.455-4.936-10.169-9.123-16.229-11.881-7.692-3.5-15.626-5.717-24.164-5.689-8.276.027-16.817,2.055-23.743,6.722-2.233,1.505-4.453,3.152-6.422,4.99-1.849,1.726-3.598,4.476-4.849,6.824-4.18,7.846-2.552,17.348,4.561,22.844,2.987,2.307,6.851,3.976,10.73,3.802,4.875-.218,8.832-1.967,12.522-5.187.382-.334.769-.657,1.164-.975-1.213.937-2.426,1.875-3.64,2.812,1.781-1.374,3.526-2.785,5.274-4.192,1.216-.83,2.489-1.557,3.818-2.193,1.537-.549,3.101-.991,4.697-1.318,1.928-.13,3.857-.114,5.784.036,1.661.317,3.302.744,4.9,1.291,1.542.775,3.016,1.662,4.439,2.642,1.764,1.512,3.393,3.163,4.894,4.939,1.282,1.822,2.423,3.736,3.396,5.739,1.204,3.207,2.085,6.511,2.663,9.887.416,4.166.391,8.343-.044,12.505-.692,4.131-1.79,8.167-3.31,12.071-.669,1.452-1.374,2.886-2.166,4.276-.51.894-1.045,1.774-1.606,2.637-.398.612-1.719,1.928-1.94,2.689-.257.302-.514.604-.777.901-.826.933-1.68,1.842-2.558,2.726-1.574,1.584-3.235,3.08-4.958,4.5-.402.207-.878.704-1.194.933-1.008.728-2.035,1.43-3.079,2.106-2.092,1.356-4.252,2.607-6.466,3.755-1.025.532-2.061,1.041-3.108,1.529-.355.165-.713.325-1.07.485.328-.122.429-.146-.214.11-.059.024-.119.044-.178.068-.039.017-.078.036-.117.053-.059.026-.195.07-.337.12-.054.021-.109.041-.162.062-.016.006-.029.012-.044.018.006-.003.01-.005.016-.008-1.99.777-3.994,1.51-6.033,2.152-4.87,1.534-9.86,2.634-14.906,3.398-5.114.606-10.261.874-15.411.733-2.611-.071-5.22-.239-7.82-.497-.569-.057-1.138-.12-1.706-.185-.427-.209-1.445-.192-1.839-.254-.735-.116-1.468-.239-2.201-.369-5.211-.926-10.356-2.213-15.394-3.834-2.561-.824-5.094-1.735-7.595-2.729-.437-.173-.872-.354-1.308-.531-.041-.018-.082-.035-.123-.054-1.279-.559-2.549-1.14-3.81-1.742-4.857-2.32-9.681-4.837-14.327-7.557-2.243-1.313-4.445-2.695-6.603-4.143-1.076-.722-2.142-1.461-3.195-2.215-.988-.708-2.587-1.521-3.34-2.476.102.129,1.575,1.24.4.303-.219-.175-.44-.348-.659-.524-.512-.409-1.02-.821-1.525-1.237-1.081-.891-2.147-1.799-3.198-2.725-1.956-1.722-3.858-3.504-5.704-5.344-3.789-3.777-7.407-7.755-10.735-11.946-.097-.122-.194-.245-.29-.368-.084-.108-.26-.334-.408-.529-.451-.595-.896-1.194-1.335-1.798-.877-1.204-1.731-2.424-2.563-3.66-1.659-2.466-3.168-5.009-4.672-7.57-.325-.553-.624-1.119-.938-1.677-.66-1.592-1.342-3.175-2.047-4.747-1.394-3.112-2.701-6.322-4.828-9-.24-.302-.521-.443-.805-.475-1.444-2.074-5.135-1.128-5.032,1.579.247,6.545,2.178,13.207,4.585,19.297-.237-.599.457,1.176.516,1.317.39.946.789,1.889,1.193,2.83.626,1.456,1.282,2.899,1.966,4.328,1.323,2.764,2.752,5.477,4.283,8.13.322.558.669,1.1,1,1.652.933,5.446,1.579,10.948,1.723,16.436.118,4.528.068,9.061-.147,13.586-.108,2.281-.249,4.549-.531,6.815-.016.126-.029.232-.039.32-.015.098-.032.215-.057.38-.058.399-.115.798-.174,1.196-.208,1.398-.433,2.793-.674,4.186-1.538,8.893-3.223,17.663-5.596,26.379-2.66,9.771-5.869,19.506-9.727,28.878-2.363,5.442-4.967,10.79-7.725,16.04-1.535,2.922-3.154,5.8-4.855,8.629-.852,1.416-1.767,2.794-2.617,4.211-1.316,2.194-1.963,4.518-2.497,6.97-.997,4.572.326,9.11,4.1,12.026,3.347,2.586,9.022,3.546,12.707.895,1.772-1.276,3.603-2.549,5.154-4.092,1.733-1.725,2.962-4.163,4.181-6.283,1.493-2.595,2.917-5.23,4.272-7.899,3.139-6.185,5.852-12.57,8.182-19.103,2.042-5.723,3.788-11.551,5.242-17.451,1.632-6.623,2.573-13.372,3.298-20.152,1.327-12.404.973-24.779-.709-37.121-.012-.085-.061-.527-.088-.758-.013-.162-.028-.337-.03-.349-.078-.827-.18-1.653-.278-2.478-.217-1.827-.461-3.652-.717-5.473-.412-2.927-.895-5.844-1.45-8.748-.136-.714-.276-1.427-.413-2.141,3.985,4.825,8.32,9.363,12.944,13.551,5.061,4.584,10.491,8.813,16.149,12.635,5.144,3.475,10.829,6.217,16.531,8.644,12.928,5.502,26.225,8.995,40.246,10.23,27.878,2.455,58.28-5.593,78.415-25.752,9.588-9.6,16.663-21.664,19.547-34.984,2.828-13.064,2.357-27.011-2.537-39.533Z" fill="#fff"/>
  </g>
  <g>
    <path d="M1883.526,2164.157c-2.776-5.727-6.91-11.077-11.29-15.639-1.687-1.757-3.505-3.367-5.408-4.884-3.929-3.131-8.211-6.803-13.162-8.185-.779-.32-1.556-.648-2.337-.962-12.874-6.381-28.214-8.535-42.352-9.294-13.631-.731-27.199.474-40.785,1.418-34.843,2.42-69.64,7.349-103.977,13.677-33.692,6.209-67.063,14.063-100.422,21.831-33.362,7.769-66.581,16.136-99.975,23.771-33.42,7.641-66.976,14.937-100.902,19.959-3.366.498-6.737.965-10.108,1.427-13.072,1.705-26.317,2.653-39.47,3.415-13.461.78-26.978,1.235-40.391-.381-8.535-1.309-16.955-3.285-24.966-6.558,1.149.485,2.298.97,3.447,1.455-2.281-.982-4.604-1.824-6.911-2.724-1.161-.512-2.324-1.021-3.46-1.588-.715-.357-1.44-.709-2.133-1.108-1.035-.596-2.133-1.016-3.233-1.429-2.12-1.048-4.326-2.355-6.499-2.938-.107-.05-.216-.094-.322-.144-.524-.248-1.039-.536-1.568-.77-.195-.086-.308-.124-.382-.138-.02-.015-.032-.025-.052-.041-.623-.619-1.357-1.047-2.203-1.284-1.633-.687-1.59-.671.131.049-.087-.252-.989-.621-1.204-.76-.396-.257-.789-.518-1.179-.784-.054-.037-.118-.087-.184-.141.024.023.035.033.061.058-2.481-2.371-6.137-2.999-9.237-1.63-.072.011-.126.02-.222.035-.813.126-1.449.275-1.922,1.028-.285.453-1.27,1.564-.265.567-2.547,2.526-3.181,6.883-1.287,9.979.863,1.411,1.373,3.03,2.27,4.425.014.026.017.031.029.053.014.033.025.058.039.093.237.846.665,1.58,1.284,2.203.924,1.194,1.041,1.347.352.459-.971-1.04-.226-.19-.004.194.237.41.479.819.725,1.223,2.161,3.546,4.734,6.674,7.623,9.658-.09-.117-.18-.234-.271-.35,2.798,3.108,6.791,5.593,10.235,7.739,3.842,2.395,7.8,4.176,12.018,5.852,7.321,2.91,14.867,4.681,22.663,5.729,17.188,2.309,34.334,1.351,51.482-.826,13.09-1.662,26.132-3.662,39.158-5.761,12.357,1.136,24.625,2.892,36.75,5.606,6.933,1.552,13.795,3.439,20.52,5.733,2.767.944,5.506,1.965,8.216,3.063.363.147.725.296,1.086.445.019.008.137.057.258.108.21.091.562.242.644.277.268.116.535.233.802.351,1.426.629,2.843,1.278,4.249,1.952,5.184,2.482,10.169,5.482,14.954,8.658,2.442,1.621,4.804,3.342,7.158,5.086.156.124.315.246.469.368.529.419,1.055.843,1.578,1.271,1.119.916,2.223,1.851,3.31,2.806,2.457,2.157,4.665,4.614,6.81,7.078,1.014,1.166,2.005,2.351,2.971,3.556.131.163.263.328.393.495.442.589.884,1.178,1.315,1.776,3.428,4.746,6.182,10.006,8.537,15.369,2.423,6.1,4.32,12.515,5.411,18.992.648,6.46.384,12.992-.312,19.448-.662,4.13-1.705,8.175-3.173,12.092-1.224,2.559-2.639,5.019-4.253,7.35-1.801,2.053-3.78,3.932-5.951,5.61.364-.281.728-.562,1.091-.843-1.785,1.448-3.31,2.933-4.76,5.159-.325.498-.634,1.006-.962,1.502-.64.968-1.215,1.973-1.847,2.946-3.039,4.68-2.753,11.257,0,15.963,2.878,4.917,8.034,7.669,13.655,7.832,3.199.093,6.409-.332,9.527-1.052,4.821-1.115,8.796-4.641,12.342-7.941,3.952-3.677,7.365-8.119,10.19-12.702,5.966-9.68,8.552-20.625,9.761-31.786,1.044-9.638-.652-19.718-3.739-28.881-1.74-5.163-3.853-10.37-6.595-15.092-2.857-4.922-6.38-9.526-9.99-13.906-6.311-7.658-13.889-14.31-21.778-20.291-7.662-5.809-15.814-11.162-24.374-15.549-19.14-9.811-39.857-15.692-61.129-18.472,3.158-.575,6.312-1.171,9.466-1.766,12.333.266,24.627,1.46,36.783,3.627,31.258,5.573,61.212,16.08,90.782,27.393,29.846,11.419,59.794,23.162,91.153,29.78,27.618,5.829,56.115,6.889,83.842,1.147,25.766-5.336,50.008-17.161,70.66-33.374,2.021-1.587,3.966-3.263,5.867-4.989,2.607-1.847,5.152-3.771,7.668-5.751-1.138.88-2.277,1.759-3.415,2.639,2.824-1.426,5.415-4.044,6.855-6.858,1.537-3.004,2.055-5.625,2.37-9.053.098-1.065.169-2.132.225-3.2.272-5.127-3.011-10.248-7.327-12.774-4.83-2.826-10.079-2.368-14.933,0-1.927.94-3.663,1.705-5.385,3.035-1.977,1.527-1.915,1.478-3.444,3.457-1.476,1.911-2.299,3.81-3.109,6.079-.087.243-.186.483-.274.726-.302.673-.587,1.354-.904,2.02-.318.666-.711,1.285-1.132,1.886-4.41,5.556-9.3,10.541-14.841,14.967-6.237,4.583-12.92,8.249-20.007,11.366-12.795,5.245-26.235,8.603-39.908,10.577-8.932,1.125-17.934,1.639-26.937,1.49-4.579-.075-9.153-.32-13.715-.718-2.852-.249-5.7-.548-8.542-.896-1.417-.173-2.833-.352-4.249-.532-.058-.007-.134-.014-.217-.022-.915-.058-1.85-.262-2.755-.395-23.209-3.433-45.881-9.698-68.27-16.593-40.108-12.351-79.978-27.111-121.781-32.127,25.318-5.485,50.477-11.669,75.601-17.989,31.315-7.877,62.524-16.363,94.025-23.472,31.386-7.083,62.952-13.46,94.789-18.161,3.301-.487,6.607-.946,9.914-1.397,11.849-1.555,23.724-2.76,35.646-3.627,11.994-.872,24.139-1.793,36.169-1.5,5.215.127,10.424.433,15.616.937l-3.648-.49c1.783.248,3.567.462,5.351.681,9.884,1.423,19.665,3.696,28.958,7.382,3.453,1.553,6.815,3.33,9.853,5.581,1.987,1.566,3.974,3.13,5.996,4.668-1.213-.937-2.426-1.874-3.639-2.811,2.943,2.278,5.629,4.835,8.04,7.655,1.668,2.433,3.099,4.985,4.395,7.659,1.925,3.972,6.894,7.337,11.018,8.473,4.413,1.215,10.29.667,14.207-1.858,3.937-2.538,7.402-6.317,8.473-11.018,1.15-5.049.402-9.544-1.859-14.207Z" fill="#fff"/>
    <path d="M1222.23,2191.406c-1.209-1.152-.508-.413,0,0h0Z" fill="#fff"/>
  </g>
  <g>
    <path d="M1124.444,2156.492c-.157-20.347-.883-40.676-1.496-61.014-.172-5.709-.508-11.399-.856-17.099-.174-2.848-.295-5.706-.521-8.55-.259-3.277-1.278-6.395-2.314-9.492-.95-2.838-3.89-4.453-6.758-3.245-1.557.656-2.484,1.874-2.83,3.274-.023-.01-.046-.02-.069-.029-.848,2.348-1.753,4.724-2.222,7.186-.554,2.903-.6,5.969-.851,8.913-.43,5.048-.949,10.097-1.224,15.156-.555,10.234-1.111,20.468-1.667,30.701-.388,7.149-.702,14.298-.993,21.448-4.86-7.478-10.896-14.133-18.231-19.527-6.207-4.564-13.793-7.674-21.307-9.3-4.713-1.019-9.407-1.641-14.102-1.575-10.001-1.899-20.136-1.654-30.182-.067-23.516,3.715-44.546,15.845-65.987,25.464-1.501.674-3.006,1.34-4.515,1.995-.661.287-1.324.57-1.986.854-.414.177-.833.347-1.249.518-2.962,1.216-5.958,2.321-8.999,3.324-5.807,1.916-11.668,3.11-17.687,3.996-7.267.835-14.585.932-21.86.17-3.384-.562-6.727-1.341-9.989-2.421-1.874-.62-3.722-1.309-5.593-1.937-.941-.316-1.872-.656-2.796-1.02-4.887-1.925-11.075-1.223-15.535,1.387-5.314,3.109-9.084,9.171-8.94,15.373.117,5.045,1.873,9.64,5.521,13.235,2.903,2.86,6.421,4.312,10.186,5.534,5.135,1.668,10.61,2.268,15.996,2.435,9.364.291,18.95-1.184,27.901-3.902,9.05-2.747,17.4-6.899,25.789-11.178,28.648-14.614,53.805-37.86,85.534-45.357-2.164,1.683-4.144,3.582-5.818,5.71-3.2,4.069-5.426,7.948-7.356,12.763-1.586,3.955-2.258,8.01-2.696,12.247-1.123,10.858,3.128,21.321,10.078,29.463,4.24,4.967,9.967,8.524,15.982,10.87,2.019.787,4.061,1.365,6.203,1.702,1.631.256,3.432.621,5.082.682,1.85.068,3.837-.264,5.658-.612,1.126-.215,2.225-.534,3.31-.901,7.65-2.587,12.637-9.479,11.536-17.671-.454-3.379-1.842-6.872-4.43-9.247-1.086-.839-2.173-1.679-3.259-2.518-2.153-1.249-4.46-1.932-6.903-2.117-1.017-.191-2.035-.381-3.07-.52-1.046-.141-2.091-.223-3.135-.306-1.364-.29-2.716-.661-4.037-1.108-.782-.403-1.542-.844-2.283-1.318-.628-.566-1.228-1.161-1.799-1.784-.474-.736-.909-1.497-1.307-2.277-.336-1.023-.622-2.058-.84-3.113-.109-1.581-.096-3.162.024-4.744.37-1.954.902-3.869,1.585-5.738.676-1.435,1.404-2.852,2.225-4.203.204-.337.429-.658.653-.98.021-.07.347-.588.633-.93.129-.187.262-.371.385-.562-.113.176-.214.331-.306.472.425-.491.863-.97,1.32-1.431.631-.638,1.308-1.214,1.977-1.808.427-.296.847-.599,1.283-.883.972-.632,1.975-1.215,3.006-1.746.481-.247.971-.471,1.459-.705.3-.117.6-.233.903-.342,2.201-.795,4.44-1.299,6.726-1.764.072-.015.226-.04.362-.062.487-.061.978-.119,1.466-.154,1.377-.101,2.761-.044,4.138.052,3.887.273,8.412,1.622,12.309,3.539,14.326,7.045,22.284,21.555,26.147,36.44-.189,5.722-.372,11.445-.555,17.17-.182,5.708-.069,11.39.045,17.099.057,2.864.181,5.694.408,8.55.113,1.425.195,2.856.372,4.275.158,1.271.302,2.338.517,3.529.045.25.17,1.129.259,1.687-.086,4.836,4.999,9.314,9.674,9.105,2.498-.112,5.088-.932,6.829-2.828,1.847-2.012,2.501-4.137,2.829-6.829-.321,2.635.407-1.213.53-1.871.362-1.944.527-3.936.73-5.902.268-2.592.535-5.168.649-7.772.222-5.042.612-10.11.573-15.156-.079-10.234-.158-20.467-.237-30.701Z" fill="#fff"/>
    <path d="M1040.647,2135.091c-.213.309-.419.622-.633.93-.017.056.16-.175.712-1.02-.016.018-.033.035-.048.052-.01.012-.021.025-.031.038Z" fill="#fff"/>
  </g>
  <path d="M1644.091,700.43c-1.53-4.727-4.306-8.033-8.372-10.888-3.722-2.613-7.561-4.717-11.739-6.515-5.348-2.301-10.567-4.475-16.233-5.815-9.596-2.269-19.516-3.474-29.374-3.578-18.848-.198-37.806,2.291-56.276,5.856-19.603,3.784-38.798,9.238-58.211,13.828-6.076,1.437-12.142,2.92-18.203,4.423,4.698-2.808,9.209-5.872,13.737-8.965,12.068-8.243,22.935-18.175,31.507-30.053,6.146-8.515,10.472-19.583,6.736-30.02-2.961-8.274-9.423-15.342-18.486-16.56-6.361-.855-12.683,1.319-16.674,6.484-1.3,1.682-2.36,3.556-2.884,5.655-.565,2.267-.714,5.116,0,7.323.225.696.523,1.39.836,2.077.248.616.46,1.076.705,1.518.016.035.033.072.049.106-.01-.024-.021-.049-.031-.073.35.624.775,1.219,1.507,2.168.909,1.176,1.955,2.108,3.065,2.996-.388-.299-.775-.599-1.163-.898.975.843,1.988,1.613,3.028,2.343.08.061.157.119.238.18-.07-.054-.14-.108-.21-.162.694.486,1.392.966,2.13,1.394.276.16.552.317.828.474.002.373-.016.749-.032,1.122-.181.662-.404,1.313-.648,1.957-1.982,4.411-4.379,8.654-6.991,12.715-1.321,2.053-2.709,4.063-4.158,6.028-.136.185-.887,1.443-1.094,1.459.244-.315.488-.63.733-.945-.255.328-.512.655-.77.98-.838,1.056-1.693,2.098-2.564,3.127-3.279,3.874-6.743,7.528-10.582,10.851-1.871,1.619-3.786,3.183-5.73,4.713-.099.078-.181.143-.249.197-.082.06-.179.132-.313.232-.504.374-1.003.755-1.507,1.127-1.177.87-2.365,1.724-3.564,2.562-13.127,9.175-27.378,16.187-42.188,21.963-7.913,2.105-15.815,4.254-23.677,6.536-5.817,1.688-11.617,3.436-17.409,5.209-5.601,1.715-11.417,3.149-16.703,5.69-.018.009-.038.016-.055.025-.034.016-.068.03-.102.046-1.256.61-.698,2.879.736,2.716,3.934-.447,7.663-1.499,11.498-2.472.304-.077.609-.151.913-.228.071-.012.144-.022.214-.035,3.852-.685,7.703-1.385,11.547-2.116,7.672-1.458,15.322-3.033,22.919-4.843,8.629-2.055,17.19-4.447,25.612-7.246,6.913-1.498,13.843-2.905,20.794-4.12,30.26-5.29,60.116-9.466,90.828-11.367,14.691-.91,29.565-1.11,44.223.488,10.966,1.751,21.829,4.535,32.155,8.641,7.934,3.507,15.557,7.627,22.891,12.263,3.914,2.474,9.637,3.049,14.038,1.837,4.226-1.164,8.806-4.431,10.888-8.372,2.234-4.228,3.354-9.35,1.837-14.038Z" fill="#fff"/>
</svg>